P2
80 80
255
32 31 29 26 23 14 13 10 7 7 6 6 7 8 10 10 11 10 10 9 7 6 6 9 29 59 66 68 69 75 79 80 81 80 79 77 74 68 68 66 62 58 55 52 52 52 48 48 50 45 40 36 34 32 32 34 33 34 33 30 30 29 26 21 21 20 20 19 17 17 16 16 18 18 19 21 22 22 23 25 39 37 33 28 23 13 10 8 6 8 8 8 8 9 11 11 11 10 10 9 7 7 6 11 29 48 62 68 73 81 83 82 85 88 85 82 79 77 75 73 69 64 62 56 55 59 57 57 56 53 51 46 42 39 40 40 39 40 39 37 37 36 35 30 26 23 24 23 21 19 19 17 17 17 17 20 21 22 25 25 47 43 38 30 23 14 7 6 7 8 8 8 10 12 13 13 11 11 10 10 6 5 6 13 30 42 51 62 72 83 88 93 97 97 93 90 86 84 80 77 72 71 70 66 63 66 64 64 65 59 56 55 53 47 47 46 46 47 47 46 42 41 41 39 35 34 33 29 25 23 21 19 17 18 18 18 20 21 23 25 50 47 40 29 23 13 6 7 8 9 9 11 14 17 18 14 13 11 11 8 4 5 8 21 36 44 49 56 66 80 90 98 104 103 100 99 95 89 85 88 83 82 79 75 73 73 73 72 71 65 60 63 62 58 56 53 53 54 53 53 50 47 47 47 45 42 39 35 33 29 26 24 20 19 17 18 20 21 22 24 54 48 34 24 18 11 7 8 11 10 12 18 22 25 23 17 14 12 11 5 4 4 13 33 39 43 51 54 58 74 90 100 103 107 109 108 107 100 98 102 99 95 89 83 83 82 79 77 75 73 69 70 68 65 62 60 58 57 59 59 54 51 52 57 54 49 46 43 39 34 30 26 22 19 16 17 18 21 22 24 56 46 31 18 13 11 8 9 9 11 20 27 32 33 29 18 15 14 9 5 4 5 15 31 38 44 51 57 57 67 85 100 105 109 115 113 116 111 112 111 105 103 98 92 89 87 86 83 81 76 74 77 72 70 69 66 64 61 65 63 60 57 57 59 56 53 51 48 44 41 35 30 25 21 20 18 17 19 21 22 57 45 31 16 14 14 11 9 9 18 34 41 44 42 34 23 17 12 6 5 7 10 12 20 29 40 51 60 62 66 78 98 109 114 118 118 117 122 121 117 113 109 106 99 95 92 92 88 86 82 81 81 75 71 73 74 71 66 66 67 66 62 60 57 57 55 52 50 47 44 40 35 32 24 23 21 18 18 20 20 59 46 28 17 19 13 12 10 10 25 43 54 59 54 41 28 21 9 4 8 20 22 18 21 27 37 52 61 66 69 77 91 107 117 119 124 125 129 126 123 119 116 112 104 96 96 95 92 91 90 90 87 81 76 76 78 78 74 71 69 66 64 64 59 58 58 54 53 52 47 43 40 36 29 25 25 22 19 18 19 67 56 30 19 17 10 12 10 12 32 51 64 71 64 47 37 25 6 5 20 41 41 33 31 33 36 51 65 71 71 74 86 106 119 119 122 128 133 128 128 123 119 110 104 99 102 103 100 98 94 93 92 90 86 82 81 83 80 74 67 66 66 66 62 59 58 56 56 57 52 48 42 38 32 27 28 23 20 19 18 78 63 37 29 16 9 13 11 15 38 64 75 80 73 53 46 26 5 7 33 71 58 46 45 43 39 50 66 74 75 78 88 107 122 126 128 132 139 138 136 128 121 109 109 115 114 113 108 104 101 99 99 97 93 86 85 87 83 76 74 67 62 61 56 57 56 56 59 61 61 56 49 43 39 32 32 25 23 17 18 86 68 43 32 13 8 10 8 17 45 78 90 90 77 57 53 22 7 9 34 95 79 55 55 55 46 55 69 78 83 84 92 111 121 129 136 142 146 150 144 138 132 117 116 123 121 119 115 111 106 108 107 104 102 93 91 88 86 80 76 69 60 57 53 51 52 50 55 60 66 65 60 53 46 38 32 29 23 19 17 93 73 47 28 15 9 9 8 17 49 88 99 102 87 65 60 20 8 14 35 95 94 62 66 67 54 61 76 85 91 87 91 109 125 132 138 145 147 151 147 141 139 126 124 130 127 125 123 113 112 114 118 112 112 102 95 88 87 83 77 69 58 53 50 46 42 43 49 57 64 69 65 61 52 44 38 33 28 23 19 97 80 54 34 18 9 7 9 17 55 94 115 118 93 70 63 18 9 26 41 75 100 72 72 73 62 65 81 94 94 93 94 110 128 133 136 143 147 148 146 141 136 131 129 133 134 129 127 117 119 118 118 113 114 105 95 88 86 81 73 63 53 49 46 47 46 45 49 57 64 68 64 60 59 49 44 36 32 30 26 100 83 56 39 23 14 8 10 16 51 93 128 127 96 78 67 15 9 22 31 53 100 80 73 78 70 72 87 101 100 98 101 114 129 135 142 149 153 149 150 144 143 137 134 130 129 131 128 127 123 124 121 115 114 105 95 88 83 73 63 60 53 48 43 51 57 56 58 68 72 71 67 63 63 55 49 45 41 37 35 101 86 65 40 19 13 9 11 14 38 83 132 134 102 90 70 10 3 6 11 30 84 82 74 82 77 77 91 105 108 106 106 119 131 140 146 147 154 154 155 150 151 145 144 137 134 138 132 131 130 125 123 115 109 104 98 91 84 68 64 63 56 48 46 48 59 70 73 78 79 78 73 70 70 63 56 53 51 44 41 106 91 71 39 20 10 9 10 12 26 72 133 138 106 97 71 7 3 5 8 13 65 85 74 85 79 80 95 109 113 110 110 123 130 141 147 145 156 161 156 148 153 151 149 147 143 143 136 136 134 121 115 108 103 101 100 96 85 73 74 65 57 51 45 40 48 74 87 88 87 80 76 75 74 68 62 55 53 51 48 111 97 70 41 19 10 8 9 11 19 60 132 142 110 101 65 4 4 5 9 9 54 97 82 86 82 86 99 112 115 109 115 125 135 142 151 152 158 164 162 151 160 158 154 152 145 144 142 138 129 114 104 102 105 102 102 99 87 77 71 65 56 49 43 33 34 70 91 94 95 89 79 74 76 71 64 57 56 54 54 119 103 75 43 20 9 8 7 10 16 50 133 150 112 103 64 3 3 3 8 8 52 102 87 87 86 94 105 114 113 113 124 130 139 143 155 158 162 163 168 153 157 162 156 151 146 144 138 128 116 108 103 102 108 106 99 95 83 69 64 59 56 45 31 20 16 51 89 97 100 99 87 77 76 70 64 60 59 58 59 123 108 83 48 23 12 8 7 9 14 39 120 150 111 100 64 4 5 5 8 10 69 107 86 84 85 96 114 119 115 119 131 136 141 143 155 162 166 166 168 153 150 158 154 149 145 135 121 112 100 92 91 94 104 108 99 88 78 68 67 60 51 42 24 13 9 21 72 98 102 103 94 85 79 72 63 58 57 57 58 128 117 88 55 25 14 8 7 9 13 30 96 152 120 101 68 5 7 8 11 19 145 128 88 84 86 101 116 120 119 125 131 138 143 148 151 158 158 161 171 167 158 160 154 145 134 117 98 75 53 43 47 76 102 105 96 83 74 66 64 62 52 40 23 14 8 6 42 90 99 99 97 91 79 72 65 63 61 61 60 133 121 93 64 28 12 8 8 9 13 22 65 132 127 104 79 9 4 8 12 48 172 143 89 87 94 107 120 126 130 135 139 143 139 144 144 144 147 148 162 167 161 155 143 132 114 83 48 24 14 12 16 53 98 103 93 85 73 62 62 62 50 35 20 15 5 3 26 74 85 88 90 91 82 69 65 63 62 61 60 143 124 104 69 30 15 8 8 10 13 17 39 98 125 107 92 23 4 20 59 116 161 155 92 88 99 113 126 133 138 137 137 143 138 135 128 129 131 136 141 149 146 128 110 94 62 26 11 8 8 9 11 48 96 102 95 91 83 72 64 55 41 26 17 12 4 3 22 62 69 77 83 85 80 69 64 59 60 60 59 152 130 109 75 34 17 9 8 10 13 17 30 72 112 102 99 47 10 36 122 170 162 165 95 92 110 124 132 137 140 135 129 133 130 125 119 115 114 119 120 117 106 83 62 35 15 8 7 6 7 8 10 47 94 98 96 91 83 75 65 47 34 20 16 10 3 2 20 55 54 61 72 78 75 71 67 60 56 54 57 153 138 115 85 46 21 14 10 10 13 16 25 53 101 96 92 73 23 16 61 113 143 177 103 100 119 133 138 139 137 127 123 121 117 113 108 101 97 92 90 77 60 45 30 22 20 14 9 6 6 7 9 33 81 92 90 88 87 82 70 53 30 18 13 9 4 2 21 54 44 46 59 67 71 72 67 59 55 54 58 163 143 119 91 56 27 18 13 11 13 15 19 40 80 87 81 83 54 16 12 20 100 163 111 106 124 140 141 137 126 118 112 106 100 98 91 84 75 63 53 49 47 42 30 21 21 19 15 9 7 7 7 16 56 90 93 84 85 86 71 51 26 16 13 8 2 2 24 53 43 37 43 53 62 67 65 60 59 61 62 167 141 123 97 65 41 22 13 12 14 15 19 31 59 81 75 74 80 62 30 10 81 140 112 115 132 138 137 127 111 103 98 95 88 83 78 66 53 43 47 59 57 48 35 22 17 18 16 11 7 6 7 8 31 83 93 92 93 92 73 46 25 15 12 7 2 5 29 51 42 36 38 42 53 61 64 64 61 63 65 164 144 130 108 80 53 32 18 14 15 15 20 26 47 71 74 71 75 96 102 69 58 96 109 116 131 136 126 109 94 90 84 82 77 69 59 46 40 48 65 67 59 53 41 27 21 20 17 12 7 5 6 6 18 72 94 95 96 94 72 43 26 16 14 7 2 9 36 47 42 35 35 39 46 53 62 67 64 67 69 167 154 132 111 88 59 39 26 18 15 16 20 23 39 60 71 72 72 87 115 134 118 99 106 116 125 125 117 102 90 91 86 77 68 57 47 38 42 56 60 60 56 49 37 25 18 15 15 11 7 4 6 6 14 64 88 92 94 90 69 44 28 18 14 8 3 19 41 42 40 31 29 35 40 44 55 63 66 70 74 170 155 135 116 94 63 47 33 23 19 16 18 23 34 52 65 68 74 83 103 134 155 137 129 123 117 116 113 106 100 96 87 73 60 48 43 45 52 52 47 51 48 38 28 17 7 8 9 9 7 4 5 5 14 63 88 95 98 92 67 45 33 20 15 7 5 31 45 41 43 32 24 28 34 37 46 60 68 71 75 169 159 139 121 95 71 53 42 32 25 20 19 24 33 44 56 64 68 79 97 119 131 128 122 110 106 107 106 103 94 86 77 64 54 45 45 54 54 46 39 37 35 27 22 6 1 2 5 7 6 4 5 6 18 68 90 99 100 87 64 47 34 20 13 5 9 42 49 46 47 38 27 25 28 34 41 52 63 70 77 181 167 150 126 101 80 61 46 41 30 23 21 24 30 38 49 56 63 70 78 87 93 94 94 94 95 95 88 81 70 65 64 58 53 52 57 60 51 40 34 27 23 20 17 2 1 1 4 6 5 5 5 5 26 72 95 100 95 82 65 52 37 21 10 3 16 47 52 48 52 46 32 29 27 30 38 49 59 70 78 208 178 159 133 110 93 73 55 45 32 27 24 24 28 34 44 48 51 58 61 66 72 77 81 82 78 72 64 58 54 53 56 60 62 67 72 68 53 39 29 21 17 16 15 2 1 1 4 5 4 4 5 7 40 79 97 104 95 77 65 56 38 22 9 3 23 55 57 51 58 52 35 32 31 30 38 52 62 73 82 214 181 156 134 112 97 84 67 54 42 33 27 26 29 34 42 47 47 50 55 60 66 68 66 63 58 51 46 46 49 52 57 65 71 80 85 82 69 50 32 20 14 14 16 3 1 3 5 5 4 4 6 12 61 92 105 110 93 74 68 60 36 20 9 3 30 63 66 61 66 59 39 32 33 32 39 57 66 76 86 211 179 154 140 122 107 89 75 65 53 39 34 33 30 33 36 40 42 43 47 50 51 50 50 47 43 42 45 50 54 60 67 75 82 93 98 95 85 68 48 33 22 17 18 8 2 5 6 5 5 5 6 21 77 102 114 113 94 73 69 64 38 18 8 3 36 72 78 75 74 68 47 36 35 32 40 60 70 78 90 198 179 155 142 125 112 95 82 72 61 50 43 39 35 35 38 43 43 40 41 42 44 44 45 47 49 51 61 68 74 79 86 93 99 105 113 111 103 90 75 57 39 25 19 17 7 5 7 5 4 6 6 35 90 110 117 117 99 74 68 66 43 22 9 4 45 91 98 81 80 73 52 42 39 34 40 59 72 79 93 192 175 158 141 127 114 100 91 79 65 58 51 42 37 42 48 52 55 55 55 57 60 61 66 72 76 78 84 89 95 102 108 115 123 125 131 130 122 112 102 83 59 40 28 22 18 11 9 6 4 6 8 49 94 105 118 126 109 80 68 65 44 22 9 5 48 97 103 84 84 77 55 42 41 36 40 57 74 86 99 181 169 158 146 134 119 105 97 88 74 66 63 55 48 55 62 69 72 78 85 88 92 102 111 113 119 118 120 120 120 124 128 135 140 144 151 149 144 133 117 97 75 56 40 29 23 19 13 8 6 6 13 64 99 101 121 137 129 90 69 65 46 22 10 8 53 99 94 83 83 79 56 42 39 39 41 56 73 86 101 178 167 152 144 130 122 107 99 94 81 72 70 67 67 70 78 90 99 109 118 123 128 141 149 154 158 156 157 153 153 152 146 151 157 160 167 163 161 153 129 108 87 64 46 33 25 21 18 11 8 7 23 83 101 96 117 149 137 91 68 61 46 25 14 9 56 98 94 89 92 90 61 47 38 38 39 52 71 83 98 169 164 150 137 128 118 106 97 91 84 76 72 78 80 87 98 117 130 141 146 158 162 166 174 181 181 179 175 174 178 174 163 171 174 175 180 187 184 160 136 113 92 69 49 35 25 19 18 15 11 10 39 102 110 107 112 138 137 94 68 60 45 26 15 11 53 89 90 89 95 90 62 52 43 38 40 53 71 88 102 168 161 154 140 129 119 107 97 92 87 84 81 83 91 103 122 138 153 166 182 194 193 195 200 204 203 196 183 190 199 198 189 188 187 189 195 207 209 181 146 118 94 71 51 36 24 19 19 18 15 24 62 97 108 105 105 127 135 104 74 62 50 35 18 16 57 81 84 83 91 89 63 57 49 47 49 61 78 98 112 167 159 150 142 129 114 104 96 87 87 87 91 95 105 119 143 165 179 199 212 227 235 230 233 228 214 205 204 206 212 212 205 200 190 195 203 229 244 204 153 124 102 80 56 39 26 21 21 19 25 60 88 93 95 95 102 125 132 117 84 69 57 41 20 21 78 109 95 86 90 89 66 58 55 51 57 69 82 100 124 162 154 147 137 130 114 103 94 85 81 86 91 100 111 132 153 184 208 226 239 245 242 239 244 239 221 216 210 204 209 212 211 206 197 198 205 233 255 233 162 132 111 86 63 47 32 25 26 24 57 101 114 107 97 92 98 131 151 125 88 73 58 39 21 24 95 139 108 93 92 90 66 54 56 52 63 77 92 99 123 163 151 144 132 122 109 97 93 87 79 84 91 102 120 139 159 192 225 231 242 239 230 226 227 230 224 225 212 199 199 203 209 206 199 198 197 210 233 220 166 137 114 91 74 60 38 24 25 35 93 131 135 120 111 109 120 146 165 129 92 76 58 39 19 26 105 152 125 97 95 95 69 55 57 52 65 82 94 103 118 163 152 141 125 111 100 88 86 84 84 91 98 106 124 148 163 182 202 205 207 213 209 206 205 209 207 209 207 203 197 192 196 202 200 194 195 193 186 169 161 136 112 97 85 61 20 11 18 52 112 145 147 131 116 117 139 164 168 129 91 78 58 36 17 24 103 145 128 108 103 104 77 61 61 58 67 85 94 106 122 158 151 136 123 111 102 86 78 77 80 90 97 111 128 148 163 170 176 184 189 191 190 191 192 193 192 190 194 199 196 189 186 191 196 195 190 186 183 171 155 132 112 101 86 37 1 7 17 65 122 148 149 132 118 123 149 166 165 142 100 84 57 33 15 22 98 129 123 109 101 104 84 71 68 63 71 86 97 109 123 155 147 132 120 106 93 85 79 76 73 77 92 116 127 138 149 154 158 161 171 173 178 183 179 173 177 178 186 191 190 190 186 182 187 197 190 179 181 175 150 133 118 105 74 14 1 6 17 61 114 149 150 134 124 133 152 166 166 146 109 85 63 38 19 24 80 104 111 105 99 102 89 81 78 70 75 93 100 111 122 151 139 128 119 105 89 75 74 72 67 69 85 103 115 130 133 134 140 150 166 171 172 173 174 170 170 168 176 182 185 187 186 184 183 190 190 183 176 175 157 140 121 108 65 7 1 4 12 47 98 138 155 140 128 128 149 167 170 153 118 88 68 44 24 23 71 104 119 101 96 101 94 89 87 79 83 101 107 109 115 153 136 125 114 98 76 68 68 59 59 64 71 84 100 112 118 126 134 144 157 163 171 174 174 172 166 162 166 174 184 187 188 184 182 179 183 186 179 171 162 149 132 117 65 8 1 4 10 35 85 120 151 150 135 133 146 166 171 161 127 91 69 48 23 20 65 102 109 96 98 100 99 96 93 88 94 105 112 113 111 156 147 129 112 88 67 63 57 46 52 54 59 77 90 97 107 119 125 127 137 148 166 171 168 164 162 164 163 169 182 187 187 183 184 178 176 180 183 176 170 159 152 130 78 18 1 3 8 23 61 104 147 150 139 137 147 169 174 168 140 97 73 47 23 18 59 107 111 91 98 101 102 107 99 95 102 110 115 121 117 160 148 126 107 82 66 51 42 38 43 48 58 69 79 90 94 100 101 97 106 124 150 167 179 175 167 167 170 176 184 189 193 189 185 183 175 175 177 177 172 165 158 140 101 46 16 11 12 17 33 83 146 157 147 135 145 170 184 179 148 104 75 50 29 16 54 103 109 91 100 103 103 111 103 101 113 117 119 122 125 168 143 116 92 70 50 36 32 29 39 49 58 67 77 82 82 81 79 76 79 96 117 126 153 180 194 196 199 199 199 205 212 202 191 182 177 170 164 170 173 173 161 148 129 84 46 32 27 23 23 68 141 163 153 142 145 150 173 179 155 111 78 56 34 16 51 103 100 89 102 106 110 115 113 118 126 122 120 119 126 167 143 122 89 56 35 27 23 30 41 48 59 69 73 75 73 69 67 68 77 93 108 101 111 139 178 204 214 218 221 227 225 216 205 189 178 165 160 169 178 183 169 155 147 119 80 57 43 30 29 68 142 163 157 153 141 138 158 171 162 119 84 57 36 19 41 95 98 94 108 110 115 118 119 126 130 122 120 126 133 170 138 118 86 46 24 23 20 31 44 49 62 69 69 69 68 64 60 61 75 92 98 101 110 127 147 182 211 221 218 216 217 220 212 199 186 176 165 159 171 181 176 164 152 134 107 79 56 38 35 74 150 165 163 159 145 142 157 169 167 127 90 61 38 20 40 96 101 102 111 113 120 126 125 123 126 123 123 130 134 181 145 114 83 35 19 22 20 30 46 54 64 68 68 63 61 57 54 59 72 83 90 108 122 120 136 161 194 212 219 226 225 217 209 203 193 187 172 158 156 167 176 169 157 139 116 92 66 51 52 98 158 176 173 161 151 144 153 167 166 138 98 66 40 21 30 91 102 106 111 116 124 132 133 130 131 127 130 130 131 191 147 110 68 25 20 17 19 34 49 58 69 67 63 59 55 53 52 57 53 58 110 104 112 106 125 151 174 199 228 232 220 223 215 209 197 191 180 161 150 146 157 162 154 139 123 101 80 71 86 137 166 179 181 173 161 145 148 160 156 146 113 77 41 20 21 79 98 111 115 123 132 140 137 141 140 133 132 131 128 192 149 114 57 20 19 13 18 33 54 65 70 70 64 60 54 49 47 35 28 56 92 99 91 87 104 129 157 180 207 223 219 224 226 213 200 199 188 166 148 137 136 142 142 131 122 108 98 107 129 158 175 188 189 183 172 155 151 141 144 155 127 90 49 23 17 66 99 115 117 130 139 145 140 143 141 139 133 128 130 184 145 112 53 23 16 14 17 30 54 68 71 74 66 63 57 47 30 22 45 61 73 90 86 81 90 116 141 158 187 191 207 216 229 216 207 204 190 170 152 146 135 137 144 138 131 125 127 139 156 165 179 191 192 185 172 156 147 130 128 140 127 95 59 28 14 49 100 117 124 137 142 147 135 136 140 136 132 126 131 193 143 104 52 23 15 13 16 31 53 68 75 82 73 70 59 34 13 40 71 68 80 95 86 78 77 108 133 142 171 182 190 202 225 219 221 209 187 170 160 152 138 133 135 141 144 146 151 161 171 173 181 189 190 181 165 148 142 139 117 121 118 104 71 35 15 43 103 125 136 146 153 148 135 139 138 131 131 127 126 206 144 93 44 18 13 11 18 37 56 67 81 90 84 77 56 18 13 46 63 65 82 99 90 80 72 93 122 140 149 175 190 199 211 213 227 219 186 178 173 161 147 134 128 128 143 150 160 175 184 187 189 191 190 188 190 169 149 138 116 112 116 104 73 36 16 42 114 133 142 148 152 151 143 143 138 130 128 126 129 202 147 91 42 15 12 12 21 42 59 69 86 98 95 85 49 11 9 14 22 39 63 93 100 93 77 80 116 139 148 155 178 185 195 207 217 203 178 184 179 172 160 140 132 125 130 141 161 181 186 189 190 191 193 192 192 185 168 136 118 118 118 100 75 38 19 41 126 136 138 147 144 146 141 138 137 132 124 125 131 207 150 89 41 11 12 15 27 50 64 76 99 113 105 94 48 6 3 5 9 17 37 90 99 98 87 80 110 140 154 156 166 182 189 196 210 213 193 192 182 184 179 156 141 135 121 125 147 164 172 182 189 189 188 185 180 169 162 148 122 120 119 100 77 44 25 42 112 132 137 141 143 147 144 136 132 130 126 125 131 194 145 91 35 11 12 15 36 64 71 86 116 128 117 104 47 4 4 7 8 11 22 82 103 100 98 86 106 142 157 160 166 181 192 196 215 220 211 198 191 186 189 170 153 145 131 118 127 141 151 169 181 179 180 182 181 183 161 152 135 123 116 107 88 56 33 47 99 122 128 134 141 150 141 134 133 128 125 129 134 194 142 87 37 15 12 17 36 63 76 92 130 142 130 118 53 4 3 4 5 9 16 72 103 105 109 95 109 146 160 160 169 179 189 196 211 220 215 200 205 190 190 180 167 149 140 131 125 127 131 149 164 166 168 174 179 176 171 167 152 134 121 110 94 72 52 51 87 115 118 124 133 141 135 133 134 130 127 132 138 195 135 82 35 16 15 20 42 69 81 103 143 155 139 131 63 10 27 7 6 9 16 75 105 122 117 100 113 151 164 163 165 171 186 202 203 220 224 217 220 208 203 195 178 166 147 141 130 127 126 131 142 149 156 169 170 165 170 166 145 127 123 108 101 87 80 71 85 109 115 123 128 134 132 128 129 130 134 134 139 187 113 65 30 15 16 31 52 81 98 116 149 163 146 142 77 43 125 13 9 11 18 105 127 135 133 106 115 154 171 173 172 167 183 194 204 215 233 229 222 217 208 213 192 173 159 145 138 135 131 135 142 143 145 157 160 157 165 162 143 125 125 116 111 106 102 94 97 108 111 121 125 130 127 123 123 129 133 134 135 175 104 54 27 15 19 46 72 96 110 127 156 171 150 144 97 21 44 11 10 11 37 139 141 139 138 114 118 155 179 182 175 160 176 195 199 211 233 232 223 213 207 212 204 187 178 160 152 142 136 137 140 142 141 145 153 150 150 147 144 131 128 121 120 116 112 108 110 113 111 115 125 126 122 120 121 127 129 130 132 147 97 59 27 17 22 47 82 106 120 139 161 174 156 153 116 17 3 11 14 26 131 183 137 144 138 123 128 159 185 186 185 170 186 203 200 210 228 235 222 219 219 208 203 185 175 171 162 154 148 142 144 140 141 142 150 148 143 138 140 135 131 129 127 123 121 119 121 120 118 115 119 122 119 117 117 120 121 126 127 143 96 59 30 20 29 46 82 114 130 145 167 179 164 161 135 35 10 46 88 124 170 167 132 145 145 130 139 168 191 194 184 184 194 208 204 205 219 228 231 225 212 210 205 196 188 180 169 166 159 153 150 146 143 141 143 145 141 135 133 130 131 131 125 124 127 128 125 123 120 119 120 116 112 112 114 116 118 116 118 152 98 58 35 19 30 48 97 130 137 149 171 180 167 162 150 59 10 62 155 168 163 174 138 143 147 133 144 172 192 196 184 189 202 206 208 209 216 224 225 219 205 212 217 203 202 195 174 171 164 160 153 151 152 142 139 144 142 137 134 129 128 129 121 124 125 127 128 125 125 120 118 116 111 107 108 112 114 114 117 142 89 60 37 24 26 49 102 133 140 152 170 174 172 158 155 87 11 26 102 131 172 177 131 141 150 139 152 179 190 190 188 200 208 213 215 207 214 225 223 206 213 218 210 203 204 198 186 174 168 162 161 157 156 144 135 142 145 138 133 133 134 133 131 129 130 129 130 134 134 126 120 116 112 108 107 109 110 112 114 130 85 60 36 26 32 48 95 121 143 153 167 169 172 160 152 110 22 11 52 114 166 139 126 137 147 146 165 185 191 194 201 202 215 217 224 214 213 225 225 215 226 220 215 210 201 183 182 173 173 164 161 154 151 143 136 137 143 142 135 135 134 133 129 129 131 130 130 135 134 128 122 117 112 108 107 106 105 108 110 140 89 63 46 25 32 49 81 113 141 147 158 167 174 165 151 126 46 9 35 102 122 116 116 126 143 153 174 188 193 198 204 208 220 222 225 214 207 228 236 224 221 225 215 220 203 172 167 179 178 169 161 147 146 144 136 134 139 144 142 136 135 131 129 132 133 130 129 131 130 124 122 119 111 108 105 104 102 104 103 139 95 69 49 31 32 43 69 106 132 144 155 168 169 166 151 131 76 16 27 77 98 105 99 114 151 168 181 191 199 207 209 216 225 232 239 222 220 229 239 226 225 220 206 200 192 176 172 182 178 166 162 154 150 151 139 136 138 146 146 137 132 129 129 133 131 129 123 126 126 122 119 114 110 108 104 103 102 100 98 136 95 74 58 36 36 46 57 98 134 143 151 160 164 161 150 135 104 36 14 51 83 97 114 138 169 182 187 197 206 215 215 225 227 232 247 246 223 223 226 225 231 200 192 183 185 184 170 169 177 170 159 161 155 153 140 138 142 144 144 139 133 130 127 123 125 127 124 122 119 122 122 115 109 106 103 100 100 99 96 132 97 83 66 50 41 57 56 88 132 145 144 151 155 156 145 133 116 65 17 34 80 107 141 161 176 185 194 200 207 215 217 222 220 218 235 241 220 220 225 218 205 191 186 181 183 182 174 173 174 168 156 157 150 153 142 138 143 140 141 140 135 132 130 124 126 130 126 119 111 114 121 113 107 106 104 101 97 95 92 141 112 102 81 62 46 58 67 86 117 135 142 150 151 154 146 133 118 87 36 30 74 121 156 167 173 186 194 203 206 211 222 219 219 223 241 239 229 221 211 208 195 185 182 173 178 180 173 177 169 172 160 152 150 150 145 143 143 144 145 140 140 136 133 126 125 128 127 122 118 116 117 111 108 103 102 98 92 91 89 151 131 118 102 76 60 53 62 87 109 130 134 139 144 150 146 135 122 99 58 37 66 114 153 166 178 187 192 206 209 214 225 230 228 231 236 218 216 206 199 203 191 178 174 164 172 179 174 170 169 176 164 150 147 155 150 144 144 143 145 140 136 134 131 128 129 130 129 127 125 119 116 111 105 103 101 97 93 90 86 152 148 132 118 94 73 62 59 76 96 123 128 136 141 144 143 137 130 112 79 52 64 100 145 169 180 190 204 212 218 227 227 232 231 233 222 225 217 202 194 189 183 169 168 167 169 180 171 162 168 176 164 154 151 153 151 145 144 141 140 137 130 129 127 127 132 132 128 126 123 121 117 111 107 103 99 94 89 86 82 150 151 140 124 102 84 67 58 75 86 108 129 138 141 140 139 140 132 124 102 75 75 97 133 164 180 193 210 223 229 226 225 235 237 235 229 232 216 196 180 180 174 167 172 170 167 169 160 152 156 171 161 160 161 154 146 145 141 141 141 138 130 125 126 131 132 128 127 125 120 118 115 109 105 102 96 89 84 81 79 147 150 145 131 109 99 83 70 75 90 97 117 126 130 133 133 141 134 126 116 96 91 108 134 165 188 200 215 222 227 228 230 232 227 223 215 208 206 184 177 179 165 166 170 166 167 161 148 147 149 160 158 159 159 160 148 140 143 143 143 138 130 123 122 131 130 125 121 121 119 114 110 108 103 97 93 87 83 79 77