P2
80 80
255
73 73 72 71 69 68 69 70 68 63 62 57 56 46 41 36 33 39 50 59 63 80 88 100 107 106 103 98 93 91 92 94 93 91 91 90 87 87 87 87 87 87 86 86 85 83 83 85 83 78 75 77 82 83 81 81 85 84 84 83 78 78 81 77 72 71 68 63 58 57 55 48 44 41 35 31 29 35 40 45 75 76 75 72 71 66 65 71 68 58 61 60 55 41 38 38 37 46 54 59 71 80 82 96 109 110 98 92 95 96 99 96 100 98 94 90 94 95 98 97 93 95 92 88 84 77 78 82 85 79 81 88 93 94 91 84 81 88 87 85 85 83 83 80 79 74 74 72 69 66 62 54 48 47 43 40 35 28 34 37 76 79 79 75 71 67 63 66 59 59 62 66 58 46 42 44 41 52 56 58 73 79 79 89 102 107 95 90 99 104 105 106 109 106 105 100 102 102 102 103 98 97 94 90 85 83 82 86 92 94 95 92 93 94 92 89 88 92 90 88 90 88 83 82 83 81 82 78 76 75 71 64 59 54 51 49 42 36 32 29 77 79 82 77 74 71 66 65 64 65 68 71 59 47 45 46 47 57 53 59 71 73 76 84 94 96 99 101 106 113 116 120 119 116 112 102 103 104 104 105 100 98 98 98 93 93 91 93 96 99 97 96 99 99 98 95 95 94 94 93 93 90 87 87 86 84 83 82 81 80 76 74 71 64 58 55 48 41 35 33 79 81 81 82 80 72 69 69 70 72 76 72 55 40 40 46 52 58 54 59 66 66 71 78 91 94 100 103 112 118 121 123 125 122 115 109 110 108 109 112 107 102 101 101 100 97 97 97 95 99 99 102 103 104 104 103 99 97 98 98 94 93 95 94 91 86 82 81 83 84 80 76 75 72 66 63 57 49 42 38 85 83 81 84 83 78 75 74 80 83 78 63 47 37 40 47 52 56 60 59 60 64 71 74 86 92 98 104 115 119 121 125 130 126 121 118 116 115 114 110 106 110 107 106 103 105 102 101 100 103 107 108 108 106 105 100 99 104 101 99 94 94 94 93 90 88 87 88 88 86 82 83 81 79 73 68 62 57 52 43 94 87 84 86 84 83 84 86 88 82 68 54 43 36 39 42 50 60 59 56 49 60 64 73 84 85 95 105 113 120 124 126 129 127 125 121 118 114 114 113 110 112 112 107 105 109 107 107 111 110 109 109 108 105 104 106 105 106 103 97 92 94 94 91 88 90 93 96 91 88 87 87 86 82 78 71 65 62 58 52 98 91 89 90 88 87 91 93 90 83 66 47 38 42 40 43 47 67 59 39 34 45 54 72 79 79 90 101 111 120 124 120 118 125 127 122 118 118 121 117 116 114 113 111 112 110 109 113 114 111 113 110 108 105 108 107 107 100 99 96 93 95 96 94 91 94 95 97 98 96 91 87 90 86 83 75 68 65 64 57 101 94 94 96 91 91 94 97 98 94 74 52 43 44 36 37 50 68 52 24 21 28 44 60 68 77 83 93 106 117 123 119 120 125 129 130 130 125 123 119 120 115 110 112 109 104 110 114 111 112 113 111 107 105 107 108 102 99 97 95 94 95 98 98 96 98 97 97 102 102 99 92 90 89 86 80 76 74 67 65 105 103 104 103 98 97 98 103 105 100 75 58 49 38 35 36 57 66 39 17 18 36 52 54 61 69 76 90 103 113 119 123 127 128 133 136 137 136 127 122 120 115 111 110 109 109 111 113 111 114 115 114 107 103 101 101 97 96 94 92 92 93 96 100 104 99 99 103 104 100 97 96 94 90 88 86 86 81 71 70 106 110 108 107 107 105 104 105 108 102 83 63 51 42 29 37 64 60 25 17 29 55 69 60 60 64 74 92 102 108 116 123 127 132 138 138 138 136 132 129 128 119 117 117 118 118 116 117 116 119 117 113 108 102 99 96 93 90 91 90 89 90 96 99 106 104 106 111 107 103 101 98 93 90 91 90 88 83 76 70 106 107 109 112 114 110 109 112 109 100 84 60 47 38 28 42 70 49 16 28 63 74 75 69 67 66 68 89 102 107 117 126 124 134 138 137 137 136 134 131 128 124 126 125 123 121 119 118 118 120 112 108 107 102 93 90 88 90 94 93 93 96 98 98 106 107 110 112 109 106 102 98 94 90 90 89 88 85 81 73 107 111 114 115 114 106 119 116 110 104 82 54 42 33 29 51 71 37 21 73 109 102 86 74 70 69 68 86 103 110 118 127 129 136 136 135 136 140 134 128 129 126 127 125 123 122 124 121 119 119 117 111 102 89 92 94 93 91 91 93 94 101 99 100 107 110 106 105 109 107 99 93 97 92 86 85 88 86 82 77 114 114 114 115 98 83 116 120 115 103 79 57 38 30 27 58 74 32 51 119 127 123 97 75 69 69 67 83 102 110 119 126 129 134 136 135 141 140 132 130 131 129 126 124 125 127 129 121 121 114 112 111 104 94 93 94 95 90 88 93 95 98 101 108 108 110 106 104 108 106 100 96 99 94 87 83 86 83 81 78 116 118 120 116 112 114 118 125 118 98 79 56 37 26 25 62 74 31 55 71 68 94 103 78 72 75 72 86 107 113 120 129 130 133 132 135 139 138 136 129 130 128 125 127 126 128 131 126 121 116 112 110 102 93 91 92 94 92 86 90 101 103 105 105 109 112 112 107 98 101 99 93 97 93 91 86 87 86 82 79 122 125 122 121 123 122 124 125 119 98 75 56 39 24 24 63 60 20 24 29 31 41 77 77 72 79 76 88 108 116 125 130 128 133 127 132 135 137 131 127 131 132 130 131 129 128 130 128 122 117 112 105 95 91 90 87 88 92 86 87 101 107 107 107 110 113 109 104 102 102 97 94 98 96 95 89 89 91 84 76 124 127 125 121 123 123 123 120 118 97 77 61 39 24 25 56 51 13 25 29 36 36 42 73 77 82 81 92 106 117 131 131 123 131 130 133 134 131 125 132 131 130 131 134 131 129 132 126 116 115 107 98 91 90 90 86 88 92 92 99 104 108 106 112 112 110 106 101 103 103 97 95 96 95 93 89 87 87 80 75 128 129 131 130 127 126 122 115 117 102 81 58 42 24 24 47 42 16 28 22 22 35 38 74 82 83 81 93 109 117 128 132 131 128 128 128 130 130 131 133 132 130 134 136 137 132 127 123 116 108 101 98 88 95 97 92 91 99 99 103 103 107 108 114 112 105 102 102 102 101 97 91 90 91 92 91 86 81 78 75 128 129 131 135 134 132 127 123 120 102 78 57 36 19 16 35 31 19 39 84 14 32 42 78 89 85 79 96 114 122 126 128 130 126 127 125 128 132 134 134 135 135 136 139 134 131 126 117 108 101 101 98 94 100 98 95 97 101 99 90 93 102 109 116 112 106 102 104 101 99 95 90 89 92 94 91 88 80 82 81 127 130 132 137 137 133 129 128 127 110 87 60 33 19 15 26 23 22 35 50 19 34 55 84 84 84 84 104 119 124 120 128 125 121 125 126 131 128 131 134 133 134 139 140 135 130 117 107 103 96 95 88 93 94 98 103 100 97 82 68 81 100 107 111 105 105 101 97 96 99 96 93 82 82 89 88 83 83 77 78 126 131 133 136 139 136 132 130 127 106 85 57 34 19 14 21 19 22 37 29 36 41 66 95 93 85 89 107 114 117 126 129 121 120 126 128 127 127 127 129 134 130 139 142 140 124 103 102 99 90 89 86 88 95 102 103 99 89 63 46 77 99 102 101 100 100 101 97 93 97 94 88 80 82 87 87 81 82 80 77 133 136 135 138 144 140 137 141 135 103 82 60 36 20 12 20 20 29 39 43 43 41 74 97 93 84 93 108 115 119 132 125 123 123 125 127 124 127 127 130 139 140 142 139 132 116 105 99 89 86 86 83 87 98 104 102 92 81 55 40 75 85 84 88 93 98 99 98 95 96 94 88 87 91 92 85 81 86 85 79 136 138 137 136 144 146 146 152 156 129 84 61 36 19 15 22 23 37 79 68 72 94 85 89 88 85 97 113 119 123 125 123 125 126 124 125 125 128 131 135 137 140 137 131 118 112 105 93 84 86 84 87 91 98 101 101 91 77 58 37 61 77 82 86 90 94 94 95 95 95 94 92 95 97 92 90 86 89 88 78 135 139 139 140 144 148 150 155 157 138 96 62 39 20 18 24 25 30 95 156 151 126 88 92 81 89 101 117 125 125 121 122 125 122 121 123 125 124 128 131 130 128 120 119 114 108 97 92 84 79 79 90 97 97 100 97 89 79 56 33 51 70 82 87 88 89 92 93 94 92 88 93 98 102 97 92 87 89 86 83 134 134 138 144 153 150 147 151 150 136 103 64 40 21 19 25 28 40 51 123 135 104 87 94 86 91 102 122 128 119 116 120 120 114 115 119 119 117 106 95 92 96 105 108 107 100 96 94 88 82 77 87 96 102 103 96 90 75 48 29 48 69 82 86 92 92 94 97 100 94 88 96 99 104 98 92 90 83 83 84 144 137 139 140 150 149 147 149 149 139 104 66 51 27 21 29 31 46 51 73 109 89 95 97 93 98 109 127 122 111 112 113 110 108 112 115 109 88 70 69 69 68 67 80 98 99 94 95 92 87 83 86 98 105 102 95 88 63 42 31 51 72 84 88 91 94 95 99 102 99 99 101 104 103 98 96 95 86 89 82 148 139 140 136 141 145 147 150 153 146 115 81 56 36 28 33 40 48 64 57 85 82 106 110 100 106 120 117 105 102 103 105 103 100 101 94 74 71 80 82 77 76 70 54 80 93 90 92 90 91 89 91 98 101 97 98 80 56 40 38 54 73 90 94 93 97 98 98 99 101 103 104 106 105 98 99 95 85 88 84 142 137 143 135 141 146 144 148 157 150 131 96 58 45 32 34 47 50 69 59 67 84 115 117 107 112 112 98 92 92 91 90 89 86 83 70 69 84 90 84 69 70 87 65 59 89 92 84 88 89 89 98 106 100 100 95 70 55 43 43 57 73 93 96 97 97 95 92 93 101 106 107 108 110 101 97 95 94 91 81 137 137 146 135 144 151 149 148 157 151 139 99 63 51 38 38 49 56 60 70 62 81 119 126 114 107 92 83 77 80 79 75 72 68 66 65 72 80 86 83 54 57 99 82 54 82 87 80 86 87 96 107 112 102 103 89 63 57 45 49 61 72 88 96 101 97 95 92 90 100 104 107 111 107 102 99 99 95 91 84 137 137 143 138 140 148 155 142 146 152 140 105 76 58 47 44 48 60 62 76 80 86 112 125 103 85 78 77 73 73 69 66 61 58 62 66 69 77 82 81 46 40 107 91 56 72 76 78 83 85 96 103 111 112 106 84 62 58 44 54 65 72 86 96 98 94 95 93 98 102 102 105 111 104 100 98 98 98 100 94 136 136 138 140 138 147 154 137 141 149 136 109 85 72 61 53 50 60 66 78 104 104 98 93 80 77 76 74 69 67 66 61 59 60 64 67 74 82 85 81 47 27 93 90 60 69 72 73 83 88 99 110 115 113 108 80 64 60 43 56 67 75 88 101 103 94 91 92 97 102 106 104 112 109 103 98 102 105 105 108 138 134 137 142 141 144 158 163 158 153 133 118 97 87 76 69 60 58 69 73 89 99 87 79 76 73 71 69 67 64 61 59 59 59 62 71 80 86 83 77 49 18 74 94 69 70 76 79 86 87 99 113 118 114 107 77 67 60 48 66 73 76 90 105 108 98 92 95 96 100 105 110 108 102 99 99 105 108 107 105 138 135 139 142 137 140 157 169 169 156 138 121 115 106 94 83 75 64 72 73 71 75 76 75 72 70 71 67 63 61 62 60 62 64 69 76 83 87 81 72 52 14 67 105 87 77 88 92 94 91 103 110 116 118 108 76 68 58 49 71 78 78 89 103 108 99 90 94 97 98 105 109 104 96 101 106 107 105 106 96 139 138 136 134 133 143 159 164 165 156 143 118 120 118 108 95 89 78 77 83 78 72 71 69 71 72 67 64 64 66 67 69 71 73 77 86 95 97 89 75 58 21 57 97 98 91 91 99 103 107 119 125 126 124 114 76 64 55 49 75 85 86 92 104 104 93 88 94 97 97 99 106 104 100 106 106 106 111 110 105 140 140 137 131 129 137 149 160 161 157 145 129 123 116 112 108 101 92 85 83 80 75 72 72 72 69 68 71 76 78 74 79 77 81 86 91 98 105 99 88 70 35 42 84 98 102 101 112 106 108 125 136 135 130 122 86 63 52 48 75 82 88 101 107 107 90 83 95 94 88 94 107 107 103 105 111 112 125 129 127 144 143 138 134 136 136 144 156 161 158 146 134 128 122 116 119 117 109 98 88 78 76 76 76 73 75 79 82 86 83 85 85 84 89 96 100 109 117 103 99 86 54 35 78 111 117 109 113 115 115 122 129 126 122 119 93 65 54 46 74 83 89 103 110 105 87 80 89 88 84 98 107 109 108 106 113 123 128 128 125 141 140 135 136 140 139 147 155 159 161 150 133 131 124 125 130 126 120 106 94 83 79 82 84 82 82 86 91 91 89 92 92 94 95 100 116 147 152 119 105 95 74 43 59 108 125 124 124 120 113 119 126 122 113 111 92 66 55 50 73 85 92 101 109 103 89 83 81 83 88 110 117 115 113 110 119 131 122 133 132 146 145 140 138 137 143 148 155 156 150 145 136 131 128 143 136 130 118 110 99 93 89 90 90 89 91 97 98 97 99 99 98 96 98 106 118 168 189 138 116 102 80 58 51 94 133 140 133 125 118 123 130 122 114 111 97 68 55 49 76 87 97 100 103 105 92 81 73 76 90 116 121 120 118 113 122 128 132 140 130 152 148 141 142 138 140 146 144 145 142 139 132 129 135 144 137 131 122 125 109 101 99 98 96 96 102 103 103 103 110 107 104 103 104 107 116 157 200 151 117 101 81 63 50 76 124 137 134 130 126 129 130 122 115 112 102 73 58 47 74 87 95 100 104 103 94 76 70 71 91 122 132 127 118 116 117 132 140 136 133 148 147 143 145 140 139 145 150 155 147 139 126 118 125 135 136 125 128 135 116 109 105 103 103 98 99 102 104 105 107 104 103 102 103 109 120 155 197 145 117 99 79 61 48 72 124 138 139 136 131 125 124 118 113 113 101 68 53 47 71 84 94 103 102 98 92 80 66 64 93 121 135 135 121 120 122 128 139 134 127 141 150 143 153 150 140 147 148 154 147 135 126 109 121 143 137 122 129 139 119 112 108 102 106 100 98 99 104 108 105 101 100 96 96 103 114 143 186 137 113 95 76 55 42 78 131 140 135 127 125 121 128 120 113 112 101 66 49 48 78 89 98 109 99 94 92 82 67 73 100 120 135 132 120 119 122 127 138 131 117 140 147 147 150 149 148 145 148 149 147 134 126 119 123 138 148 135 127 133 119 112 105 98 106 101 100 97 99 108 103 100 99 91 94 97 105 128 146 124 103 90 67 42 35 94 127 129 122 109 113 120 129 126 121 116 101 65 47 47 83 91 94 107 99 99 93 78 74 81 97 117 130 128 116 109 112 130 135 126 117 151 151 151 147 146 148 140 144 151 150 143 134 128 131 144 157 142 121 128 127 106 94 90 97 95 94 94 93 102 99 91 97 88 85 88 96 111 119 104 89 79 53 22 46 107 117 113 120 110 107 121 130 127 129 126 97 66 50 48 79 90 94 97 96 104 96 81 83 86 92 114 120 118 110 106 107 123 137 132 125 149 143 138 139 144 147 145 148 155 156 147 140 131 127 144 154 145 119 114 119 102 81 86 92 91 93 92 92 96 100 89 84 83 79 79 90 98 99 88 78 62 30 17 69 110 113 104 105 112 115 126 137 134 131 121 88 62 54 49 72 88 91 90 100 108 94 82 82 93 94 112 117 109 103 106 115 126 132 128 127 143 138 137 136 143 147 141 153 160 161 153 143 132 128 134 142 146 125 99 95 96 84 83 88 88 84 81 84 89 91 87 79 76 79 77 82 91 89 77 67 51 15 28 85 103 100 99 97 102 110 111 125 137 130 113 82 62 54 47 71 83 83 86 99 107 99 90 89 95 98 107 111 107 104 106 114 120 119 117 115 142 137 134 136 140 147 146 155 160 161 155 146 133 126 127 126 128 117 98 78 74 73 68 67 68 61 55 57 71 76 74 71 67 68 74 77 82 84 77 67 48 7 43 96 91 80 87 99 98 106 110 120 128 120 111 82 62 54 47 74 86 83 88 100 111 108 95 96 102 101 100 103 103 105 104 107 109 114 119 114 135 132 130 136 140 145 150 155 169 162 153 145 137 124 116 111 106 95 87 77 68 63 59 56 56 54 52 52 53 56 58 58 61 61 70 77 82 84 81 74 44 5 53 89 77 77 83 90 93 92 105 112 119 115 109 85 61 52 42 63 74 72 77 92 106 101 93 94 104 103 101 103 102 97 99 103 105 110 114 112 132 131 133 138 136 146 152 159 161 153 152 141 131 117 105 96 84 75 71 70 69 67 66 63 62 63 64 62 58 58 58 58 58 60 67 76 80 89 90 77 36 8 63 95 70 79 84 81 86 90 98 106 113 110 106 89 59 53 43 54 69 69 80 94 103 96 93 94 103 106 109 109 102 94 93 94 96 93 95 100 132 130 134 137 137 144 152 158 160 152 144 130 118 111 96 83 70 65 64 67 69 72 74 70 69 68 69 69 66 62 60 58 56 57 65 74 79 90 90 75 32 18 85 102 64 79 84 83 87 90 93 108 112 107 108 98 65 53 44 51 64 69 85 97 98 90 92 97 105 109 111 117 108 98 91 89 91 92 94 94 131 130 136 138 137 144 149 152 161 154 144 127 111 96 86 72 59 57 60 65 74 84 82 78 75 73 73 72 69 67 63 60 55 54 59 64 74 84 87 72 30 36 104 96 60 77 83 77 87 97 103 103 108 109 109 102 76 52 42 52 61 67 87 94 97 93 95 104 106 108 112 113 116 102 92 91 90 92 94 96 128 127 134 139 140 144 148 153 155 152 134 113 98 80 71 60 50 55 64 78 112 123 107 95 82 75 79 79 77 74 69 64 62 58 55 59 68 77 79 69 39 63 102 84 56 83 91 82 86 88 93 96 107 109 106 103 87 56 40 46 56 70 86 91 93 95 98 103 107 109 112 111 114 102 94 94 88 90 91 92 125 129 133 138 141 145 149 154 151 144 122 101 81 67 60 50 48 62 67 94 118 107 115 118 100 82 77 77 81 81 78 72 70 68 65 59 64 72 74 70 58 79 87 65 54 90 92 85 88 83 80 93 101 100 100 100 93 64 39 40 55 66 84 93 95 96 99 102 109 108 108 108 107 98 97 95 93 91 88 92 124 126 131 135 140 145 148 145 146 129 114 86 64 52 49 44 52 64 63 90 69 86 117 119 115 109 91 84 87 87 85 84 83 84 85 78 62 65 72 71 70 74 65 44 65 93 88 83 81 79 82 89 98 98 98 99 97 78 41 32 53 69 86 90 93 98 99 104 106 103 102 103 104 99 89 89 88 81 77 85 124 127 131 130 137 142 144 144 142 131 105 68 48 39 37 41 54 56 61 64 51 95 130 106 101 116 107 99 96 96 94 97 95 96 95 99 87 65 61 63 66 58 38 44 87 95 88 82 78 80 80 84 93 96 99 99 97 82 48 27 49 70 83 86 90 94 96 100 101 102 100 98 99 97 81 77 82 84 83 84 119 129 129 130 134 138 146 141 133 127 101 60 41 28 28 38 51 47 66 52 58 93 132 110 96 106 119 113 106 107 103 102 101 104 108 109 112 106 83 62 50 39 45 82 102 98 91 87 86 82 74 74 80 92 102 100 93 80 56 28 47 69 80 84 86 87 93 94 96 101 101 96 96 99 94 86 87 84 85 84 118 119 119 132 136 135 139 138 129 119 96 60 43 25 24 36 45 48 55 54 84 88 116 109 94 97 116 124 112 109 112 108 107 110 114 116 118 120 119 110 94 87 97 106 108 101 92 89 88 77 79 76 75 88 100 96 84 73 57 29 49 72 80 87 89 90 96 95 95 99 100 97 96 93 92 90 93 89 85 82 117 115 114 130 137 137 129 126 126 113 92 58 41 26 22 32 38 48 44 81 119 91 106 98 91 89 108 115 115 109 115 117 112 111 114 118 122 124 126 129 131 130 124 120 114 103 96 90 86 76 79 80 79 77 86 93 84 73 52 30 58 76 81 86 89 91 92 94 94 94 96 97 95 90 92 90 89 85 79 75 114 118 120 124 134 134 121 121 126 108 88 57 35 22 17 28 36 46 46 123 160 100 102 101 90 91 105 116 117 113 112 120 117 118 115 117 118 123 128 131 135 137 136 132 123 106 96 93 87 79 81 85 83 81 84 86 86 76 52 34 62 79 86 88 88 91 90 94 93 92 94 97 94 89 90 87 81 85 85 79 114 117 122 123 125 126 127 131 134 110 86 54 28 18 14 24 34 36 85 171 186 120 102 108 93 89 103 118 117 119 112 114 120 121 121 121 119 121 123 126 132 134 137 136 129 118 101 92 87 80 80 77 76 79 85 86 86 80 56 40 63 83 90 90 89 94 97 95 92 91 92 96 90 83 86 82 64 73 86 79 111 117 122 121 116 120 130 135 133 110 76 50 26 17 15 23 33 42 101 111 121 118 97 110 105 86 101 116 121 125 117 109 118 116 122 122 121 122 124 124 130 131 134 135 136 127 112 98 91 80 77 73 72 76 80 88 87 82 66 46 61 86 95 95 94 99 100 95 92 88 90 92 92 87 84 83 76 78 82 80 111 117 118 115 112 117 126 130 130 113 74 42 26 18 17 28 32 33 45 42 43 56 87 104 103 90 97 114 120 122 128 115 116 119 124 116 119 112 123 130 130 129 130 131 134 130 122 109 97 89 83 80 79 79 74 82 81 83 83 66 65 88 100 99 99 98 96 92 93 93 90 87 88 88 91 90 84 83 77 73 113 116 118 114 117 118 121 122 122 109 77 39 24 18 21 37 37 23 33 34 35 40 84 96 98 95 93 111 119 123 127 120 111 117 125 123 122 122 122 125 127 130 134 134 135 125 123 110 104 95 88 86 82 77 72 76 83 85 87 80 74 88 101 105 98 92 94 96 95 96 93 89 89 87 84 85 83 80 76 72 110 114 118 114 116 117 116 120 115 98 78 42 26 20 21 44 40 20 31 45 20 38 103 89 92 94 87 103 113 120 125 124 115 117 124 128 125 124 124 123 125 128 129 127 124 117 117 113 112 104 91 84 80 71 73 74 75 82 87 87 83 89 108 108 99 94 96 99 97 95 94 95 91 86 80 76 78 77 73 69 110 112 113 116 112 111 113 115 112 94 78 48 29 24 20 53 44 18 30 72 14 26 49 78 90 95 84 102 114 117 123 129 117 120 125 130 131 126 126 125 124 116 119 122 117 115 114 115 115 111 99 89 77 71 73 77 73 79 83 91 94 96 108 100 96 100 96 94 92 95 94 95 92 83 77 75 77 72 71 64 107 112 111 110 109 108 110 112 111 98 82 53 37 25 22 66 51 16 20 13 16 28 39 67 74 88 84 99 109 113 124 129 123 119 122 126 134 128 131 129 128 119 120 122 119 116 113 110 110 109 103 93 85 78 79 85 81 82 80 88 97 101 101 100 100 102 95 90 96 99 92 93 87 81 75 75 75 74 71 63 104 108 109 108 106 106 109 114 111 100 84 54 38 26 24 73 64 18 21 24 29 32 39 64 70 79 78 91 104 110 117 127 126 119 119 126 131 129 130 131 130 125 123 123 123 116 116 109 106 103 100 97 95 89 87 88 85 84 86 87 96 98 97 101 103 101 101 96 102 100 93 90 87 84 82 77 75 74 66 62 101 105 105 102 101 105 108 112 111 100 83 59 42 29 30 81 72 22 15 29 34 34 52 72 73 74 72 84 101 111 118 122 123 118 113 125 130 130 128 128 125 124 125 122 119 114 114 113 111 106 103 99 97 92 87 84 85 84 88 90 95 96 94 99 103 105 105 103 101 99 96 94 88 86 87 83 79 77 72 66 98 104 107 102 101 104 106 110 112 103 85 59 45 30 34 76 78 29 15 31 39 60 84 71 68 71 71 84 97 106 118 122 125 125 122 125 129 132 132 130 125 124 128 123 115 114 116 120 115 109 104 96 90 90 88 85 86 88 91 90 90 94 95 96 99 104 105 101 100 101 100 96 93 93 89 84 81 81 76 68 96 101 102 101 96 96 104 108 106 100 81 56 49 35 37 66 82 43 20 43 82 99 86 69 64 66 70 85 94 104 117 123 125 127 126 125 129 134 130 130 127 127 127 123 114 114 116 117 117 110 105 97 92 89 87 84 84 86 86 87 89 90 96 96 98 100 101 100 103 101 99 98 94 92 87 81 76 76 72 61 95 98 99 99 94 97 105 106 103 96 77 54 50 44 36 59 86 55 25 24 65 80 73 66 56 59 65 80 91 103 115 120 124 127 123 123 126 130 130 132 130 125 118 116 116 114 117 117 117 115 114 108 103 101 94 88 85 81 81 87 90 91 94 96 98 101 95 100 100 99 98 96 93 89 79 79 75 71 67 61 95 94 95 96 96 98 101 102 100 96 81 57 47 50 38 52 87 63 34 18 23 45 64 61 52 55 63 75 86 100 108 115 121 125 125 121 123 128 130 127 126 123 119 115 116 116 119 117 113 116 116 115 109 106 99 97 92 89 88 90 90 94 97 91 91 92 94 97 98 94 93 90 90 84 79 77 73 69 64 59 93 87 87 91 91 92 96 99 97 92 81 61 44 51 37 53 87 68 40 26 10 28 55 50 50 61 72 79 89 100 110 115 114 119 123 119 119 123 128 124 118 119 116 118 112 113 115 114 113 115 115 113 112 110 103 101 98 95 93 94 94 94 95 87 89 81 86 92 93 93 89 88 85 81 75 73 69 65 61 55 87 84 82 90 90 88 90 90 86 85 78 62 38 46 38 52 81 72 51 30 19 17 39 44 56 72 79 85 89 98 108 116 115 117 118 118 116 114 117 111 114 118 118 116 110 110 112 108 109 112 114 113 112 110 105 101 102 100 99 97 96 91 91 91 93 87 80 87 85 89 82 80 77 75 72 68 64 58 59 55 83 84 83 87 84 81 80 80 74 74 71 58 36 39 43 45 71 71 61 37 27 21 26 49 68 77 81 91 93 99 111 116 118 120 117 116 115 112 105 92 101 113 112 111 107 107 104 105 104 102 105 107 105 103 99 98 98 101 103 102 97 94 88 89 89 85 79 83 89 87 78 76 74 72 70 67 62 58 55 49 79 80 84 81 79 73 70 74 73 73 62 56 40 34 42 44 65 63 62 55 38 41 34 43 72 82 84 94 103 108 112 115 118 119 118 117 115 116 105 98 101 107 107 105 99 102 100 103 102 98 96 90 91 95 95 97 97 98 99 99 96 93 87 86 83 81 83 82 84 82 78 75 73 70 68 62 58 54 50 43 82 77 77 77 76 72 67 67 70 71 65 56 46 35 40 42 59 59 59 60 56 56 54 50 66 82 91 100 105 108 110 113 115 114 112 109 110 110 104 103 98 96 98 100 99 98 101 101 98 93 93 92 92 92 91 91 93 95 93 92 91 88 85 81 83 83 79 76 76 75 74 74 71 66 63 57 53 46 40 37 82 81 77 74 71 69 69 63 64 68 70 62 49 39 40 40 51 57 56 60 62 61 65 69 68 81 95 100 102 99 105 109 112 112 111 106 102 102 100 99 100 94 89 91 94 94 95 92 92 90 89 88 88 86 86 88 88 87 85 84 86 84 84 81 79 80 76 72 70 68 65 66 64 61 56 53 46 39 34 30 83 82 78 72 69 66 66 63 62 62 63 63 47 37 42 39 50 53 52 61 63 63 66 72 77 86 97 95 96 99 104 106 109 110 109 110 102 96 93 91 91 88 88 90 88 87 86 85 85 86 84 85 84 83 85 87 84 82 81 80 81 76 77 77 75 73 72 70 67 63 62 58 55 51 47 42 40 34 27 27 82 79 75 71 68 65 64 62 61 59 56 58 48 37 38 37 45 45 50 58 63 63 66 73 83 92 100 93 90 96 100 102 107 104 99 98 98 93 88 86 84 84 85 85 83 81 78 76 77 79 80 80 81 84 84 80 81 81 80 79 81 75 73 73 74 70 65 62 63 64 61 53 47 44 37 35 35 28 26 26 76 74 72 70 67 66 66 64 62 59 55 55 50 35 33 32 36 44 47 49 60 67 71 78 86 94 98 95 89 89 93 93 95 95 94 90 90 91 88 81 78 79 80 80 78 78 75 75 78 79 81 79 78 80 80 78 78 73 73 74 73 74 71 69 69 67 60 60 56 51 48 45 40 38 34 32 29 24 26 28