P2
80 80
255
0 0 0 0 1 1 1 0 1 1 2 3 3 3 4 5 5 5 7 8 7 6 5 4 3 4 6 6 8 10 11 16 28 40 49 50 46 33 18 17 21 26 28 26 23 22 20 14 15 15 14 16 15 16 16 17 17 17 17 18 18 20 21 24 28 32 35 24 11 6 4 3 2 3 4 6 3 3 5 9 0 0 0 0 0 0 0 0 0 0 1 2 3 4 4 5 6 7 7 8 7 6 5 2 3 4 5 7 8 8 10 18 30 43 51 48 39 27 17 17 22 28 29 26 23 23 18 15 14 14 14 16 15 16 17 16 17 18 17 19 18 18 20 23 26 29 34 38 28 11 6 3 3 3 3 4 2 3 5 23 0 0 0 0 0 0 0 0 0 1 1 2 4 4 5 6 7 7 7 8 8 6 4 2 3 4 5 7 7 8 11 20 30 41 44 42 35 25 17 16 25 31 28 24 25 21 17 16 15 12 13 14 15 16 17 17 17 17 17 17 18 19 20 21 24 27 30 36 40 29 10 6 4 4 4 2 3 3 0 67 0 0 0 0 0 0 0 0 0 1 1 2 4 5 6 9 10 9 8 9 8 4 2 2 3 4 5 8 9 9 14 20 29 36 38 36 32 23 17 18 26 32 29 24 23 20 17 14 14 12 12 14 14 16 16 17 16 17 17 17 17 19 20 20 22 25 29 33 38 43 31 16 14 11 11 10 9 8 6 82 0 0 0 0 0 0 0 0 0 1 2 2 4 5 7 10 11 9 9 8 5 3 2 2 3 4 5 7 8 10 17 21 30 34 35 34 27 20 16 18 27 34 29 25 22 20 18 15 14 13 13 13 13 16 15 16 17 17 16 17 18 18 18 19 22 24 27 30 36 40 45 35 24 22 21 22 22 22 21 21 0 0 0 0 0 0 0 0 0 0 1 2 4 4 7 10 9 9 10 6 2 2 2 2 3 4 5 6 8 13 18 21 27 30 34 31 24 20 17 19 29 35 31 28 24 20 17 14 12 12 13 14 13 15 17 17 17 16 15 15 16 17 17 18 20 22 25 29 34 38 42 48 35 25 25 23 23 22 22 20 0 0 0 0 0 0 0 0 0 0 1 2 3 4 6 7 8 10 9 3 2 2 2 2 4 4 5 8 11 15 17 21 27 28 32 28 24 21 19 23 34 37 33 29 25 17 14 14 12 13 13 13 14 15 16 17 17 17 15 15 15 15 16 17 19 21 24 27 31 35 38 45 48 33 26 25 24 23 22 21 0 0 0 0 0 0 0 0 0 0 1 2 3 5 6 6 8 10 5 2 0 1 1 3 4 4 5 9 14 15 16 20 23 25 26 25 22 18 19 28 37 36 34 29 22 18 15 13 12 13 13 12 13 16 16 17 16 16 15 15 14 14 15 16 17 19 23 24 27 32 37 41 48 46 30 28 26 24 22 22 0 0 0 0 0 0 0 0 1 1 3 4 4 5 6 7 8 9 2 0 1 1 1 2 3 4 6 7 9 12 14 15 17 19 20 21 20 18 22 32 35 34 33 26 21 19 14 13 12 12 11 11 13 16 15 16 16 15 15 13 14 14 14 15 16 18 21 24 28 30 34 36 43 49 40 31 28 26 24 23 2 0 1 1 0 0 0 0 1 2 4 4 5 6 7 8 8 6 1 0 2 2 1 2 3 4 6 6 8 10 11 11 13 15 16 18 19 19 24 30 33 32 28 25 21 19 15 13 12 12 11 13 13 14 15 14 15 15 15 13 12 13 13 14 15 16 19 22 26 28 30 36 40 47 49 35 29 27 25 25 2 3 3 1 0 0 0 0 1 2 5 5 5 6 6 8 9 3 0 1 4 4 3 2 3 6 7 8 8 9 9 10 11 12 13 15 18 21 23 26 31 32 30 26 22 18 14 12 12 12 13 14 13 14 14 14 15 14 14 13 13 13 12 13 15 15 18 20 24 27 28 33 38 43 48 42 31 28 26 23 3 2 1 0 0 0 0 0 0 2 4 5 6 7 7 7 8 1 0 3 5 5 4 2 3 6 8 8 8 9 9 9 10 10 11 13 16 19 22 28 32 34 32 26 24 16 12 10 12 13 12 13 12 13 13 14 13 14 14 13 12 12 13 14 14 15 18 20 22 24 27 32 36 40 44 46 35 30 26 24 0 0 0 0 0 0 0 0 0 1 4 6 7 7 7 8 7 1 1 3 4 5 5 4 3 7 8 8 9 10 10 9 9 10 10 11 13 16 22 28 31 34 30 26 22 13 11 12 13 11 13 13 13 13 13 13 13 14 14 13 11 13 14 13 13 15 18 19 21 23 25 29 34 39 43 45 39 30 26 25 0 0 0 0 0 0 0 0 0 1 3 6 7 7 7 8 7 0 0 1 1 1 3 3 3 7 9 10 10 10 10 9 10 10 10 11 11 12 18 25 29 32 26 23 16 12 11 12 13 12 13 12 12 13 12 13 13 13 14 13 13 12 13 13 12 14 16 18 19 20 22 24 31 35 40 43 43 33 27 24 0 0 0 0 0 0 0 1 1 3 5 7 7 7 7 8 7 0 0 0 0 0 0 2 4 7 9 9 9 10 10 10 10 9 9 11 10 10 11 16 22 24 21 19 14 13 12 12 12 12 13 12 12 13 12 12 13 12 12 12 13 13 13 12 12 13 15 15 16 18 19 22 26 31 37 42 43 36 27 23 0 0 0 0 0 1 0 1 1 2 4 7 7 7 8 10 8 0 0 0 0 0 0 0 4 7 10 10 10 10 10 10 10 9 9 10 9 10 11 11 14 17 17 15 13 12 12 12 13 13 12 12 12 12 12 11 12 12 10 11 11 12 14 13 12 13 13 13 14 16 17 19 22 26 33 40 42 38 29 25 0 0 0 0 0 0 0 1 1 2 4 7 7 7 8 10 8 1 0 0 0 0 0 0 3 8 10 9 10 10 10 9 10 10 10 10 10 10 10 10 10 12 13 12 11 12 12 12 12 13 12 12 12 12 11 10 11 10 10 11 11 11 13 12 11 10 11 11 13 15 15 16 18 22 28 35 40 40 31 26 0 0 0 0 0 1 1 1 2 2 4 6 7 7 8 10 9 2 0 0 0 0 0 0 3 7 10 9 9 9 9 9 10 10 10 10 10 10 10 10 10 10 10 11 11 12 11 12 11 12 11 11 10 11 10 10 10 9 9 10 12 13 11 9 9 9 9 10 12 12 13 13 16 19 24 31 37 40 34 26 0 0 0 0 0 1 1 2 3 4 4 6 7 8 8 9 10 3 0 1 2 1 0 1 5 8 9 9 9 9 10 10 9 10 10 10 10 11 10 10 10 10 10 11 11 11 10 12 11 11 11 10 9 9 9 9 8 7 9 11 14 12 7 6 7 8 8 9 11 12 12 13 14 16 21 25 33 40 37 27 0 0 0 0 0 1 2 3 3 4 5 6 7 8 8 9 10 5 0 1 1 1 1 3 5 8 9 9 9 10 9 9 10 10 9 10 10 10 10 9 10 11 10 10 11 11 11 11 11 10 10 8 8 7 8 8 8 7 9 12 13 9 4 4 5 6 7 8 9 11 11 12 12 15 18 21 28 37 40 29 0 0 0 0 1 1 1 3 4 4 4 5 7 8 9 9 9 8 1 0 1 2 6 7 4 8 9 9 9 9 10 10 11 10 10 9 8 9 10 10 10 11 9 10 10 10 10 10 9 8 7 7 8 7 7 7 7 7 9 13 13 4 2 3 4 5 6 8 8 10 10 10 11 12 15 18 23 31 39 33 0 0 0 0 1 2 2 3 4 4 5 6 7 7 8 9 9 8 4 1 5 10 14 7 5 8 8 8 8 8 10 11 11 11 9 9 8 9 9 9 9 10 9 9 9 9 8 8 7 7 7 7 7 7 6 7 7 8 10 13 11 1 2 3 4 5 6 6 8 9 10 9 11 12 14 17 21 26 34 38 0 1 0 0 1 2 3 4 5 5 5 5 6 7 8 8 9 8 7 2 4 11 12 5 5 7 7 7 8 9 10 10 10 10 9 9 9 9 9 9 9 9 8 8 7 7 7 6 5 5 5 6 7 6 6 6 6 7 9 13 12 1 2 4 4 5 6 6 7 8 9 9 10 11 13 16 19 23 30 37 1 2 2 1 1 1 2 4 4 5 5 5 7 7 8 8 9 8 8 6 1 4 5 4 6 6 6 7 8 10 10 10 9 9 9 8 9 9 9 7 8 7 6 5 5 5 5 4 4 5 5 6 6 5 5 6 6 7 8 12 14 3 2 5 5 5 6 6 7 7 9 9 9 10 12 15 18 21 28 33 1 1 0 0 0 0 2 4 4 5 6 6 6 7 8 9 9 9 8 7 4 1 2 2 5 6 7 8 10 11 10 9 9 9 8 8 8 8 8 7 7 6 4 4 4 3 3 3 5 5 5 6 6 5 5 5 5 6 7 11 13 4 1 4 6 6 6 6 7 7 8 9 9 10 11 13 16 19 24 30 0 0 0 0 2 4 5 5 5 5 6 6 6 7 8 8 7 8 9 8 7 5 0 0 3 6 7 9 10 10 10 9 8 8 8 8 8 8 8 6 5 3 2 2 2 3 2 3 4 5 5 5 4 5 6 5 5 5 7 13 13 3 1 3 7 8 8 8 7 7 8 9 9 10 10 11 14 18 21 28 0 0 1 3 5 5 5 5 5 5 6 6 7 7 7 7 8 8 9 8 7 8 5 3 4 7 10 11 11 11 10 9 8 8 6 7 7 7 7 5 4 2 2 4 5 6 7 4 3 4 4 5 5 6 5 5 6 6 8 13 13 3 1 2 8 10 9 8 7 8 8 8 9 10 10 10 13 16 20 27 0 1 3 5 5 5 5 6 5 5 6 6 7 6 7 7 8 8 9 9 9 8 7 9 9 10 10 11 11 10 8 8 8 7 6 7 7 8 5 4 3 2 3 5 7 9 13 10 3 3 4 5 4 5 5 6 6 6 7 13 11 2 2 2 7 11 10 8 8 8 8 8 9 9 9 11 12 14 18 24 1 2 4 5 5 5 5 4 5 5 6 6 6 7 7 8 8 7 8 7 8 8 7 9 9 9 9 9 10 9 7 7 8 7 6 6 6 6 3 2 2 4 5 6 8 11 17 16 4 3 4 5 4 5 5 5 5 5 8 14 10 2 2 3 7 11 11 9 9 9 9 9 8 9 10 10 12 14 17 22 4 4 4 4 3 4 4 2 5 6 6 7 7 7 7 7 8 8 8 7 7 7 7 9 8 9 9 8 9 8 7 7 7 6 5 6 5 4 3 2 3 5 6 6 9 14 18 14 5 3 4 5 5 4 4 5 5 5 8 14 10 2 2 2 7 10 11 9 9 9 9 9 9 9 9 10 11 13 15 19 3 3 2 3 4 5 6 5 6 6 6 7 7 7 8 8 7 7 8 8 7 7 7 7 8 8 7 7 7 7 6 6 6 6 5 5 4 4 3 3 4 5 6 6 10 16 13 7 3 2 4 4 5 4 5 5 5 6 9 13 8 2 3 3 7 13 12 10 10 10 10 8 8 8 9 9 10 12 15 17 2 3 4 4 5 5 5 4 4 5 7 7 7 7 7 8 7 7 7 7 7 7 7 6 7 7 7 6 6 7 7 6 6 5 5 5 4 3 2 3 4 5 6 8 13 14 5 2 2 2 3 3 5 5 6 6 6 7 10 12 7 2 3 3 6 12 12 11 11 10 10 9 8 9 8 9 10 11 13 18 3 4 4 3 4 3 2 2 4 5 7 7 7 7 8 7 7 6 7 7 6 5 6 5 6 6 5 7 6 6 6 5 5 4 4 4 4 3 4 3 4 5 6 8 13 9 0 2 2 2 3 4 5 5 7 6 6 7 10 11 6 2 3 3 7 12 12 11 11 11 10 9 9 9 8 9 10 11 13 17 3 3 3 2 1 1 2 4 5 6 7 7 7 8 7 8 7 7 7 6 6 5 5 5 5 6 5 6 5 4 4 5 5 4 5 5 5 4 4 5 5 6 7 9 13 5 0 2 2 3 3 5 6 6 8 7 7 7 10 10 6 2 3 4 7 12 12 12 13 11 10 9 9 9 9 10 10 11 13 15 2 1 1 1 2 4 6 6 7 7 7 6 7 7 7 8 8 7 7 5 5 5 5 5 5 5 4 4 4 3 4 5 5 4 5 5 5 5 5 5 6 6 7 9 13 6 0 2 3 4 4 7 8 8 8 7 7 8 9 10 6 2 3 5 7 12 12 12 12 10 10 9 9 8 9 10 10 11 13 15 0 1 3 5 4 5 5 5 6 6 7 6 7 8 7 8 8 7 7 6 6 5 4 4 5 5 5 4 4 4 4 5 4 5 5 5 6 5 5 6 7 7 7 8 11 10 2 2 3 5 5 7 8 8 9 8 8 9 9 10 6 2 4 5 7 13 12 11 10 10 10 11 9 9 10 11 10 11 13 15 3 4 4 4 4 4 3 3 5 7 7 7 6 7 8 8 8 7 7 6 6 5 6 5 5 6 6 6 6 5 5 5 5 5 5 6 7 7 7 7 9 10 8 8 10 15 8 2 4 5 5 7 9 9 9 9 9 9 10 10 6 2 4 5 8 13 13 12 11 10 10 9 9 10 10 10 11 12 13 14 4 4 3 1 2 2 3 5 6 6 7 6 6 7 8 8 8 7 8 7 7 7 6 6 7 6 7 7 7 6 6 6 6 6 7 8 7 7 7 7 9 10 9 8 10 15 15 5 3 5 7 8 9 10 10 10 9 9 10 10 7 3 5 5 9 13 13 12 11 10 10 8 8 10 9 10 11 12 12 14 2 1 1 1 2 4 6 5 5 6 6 7 7 8 8 7 8 7 8 8 9 9 7 7 8 7 7 8 8 8 8 8 8 7 8 8 8 8 8 9 9 10 10 9 11 15 17 9 3 6 8 8 9 10 9 8 8 8 9 10 6 2 4 5 9 13 12 12 11 10 9 9 10 10 10 10 12 12 13 15 0 1 3 4 3 3 2 2 2 5 7 7 7 7 8 9 8 9 8 9 10 10 9 10 10 9 9 9 8 9 10 9 8 8 8 9 9 9 9 10 10 11 11 11 11 14 15 11 5 5 7 8 8 8 8 7 7 6 9 10 6 2 4 5 9 13 13 11 11 10 9 10 10 10 11 10 11 11 13 14 2 3 2 2 1 0 0 2 4 6 8 8 8 8 9 9 9 9 10 10 11 11 11 12 12 12 10 10 11 10 10 10 10 9 9 10 9 10 10 10 12 12 11 12 12 13 13 12 6 5 6 7 7 7 7 6 5 7 9 9 5 2 5 7 9 13 12 10 10 10 9 9 10 11 11 11 11 12 13 15 1 1 0 0 0 0 1 3 4 6 8 9 9 9 9 9 9 10 10 11 12 13 13 14 14 13 12 12 12 13 11 11 11 10 10 10 10 11 11 11 13 14 13 12 13 15 14 10 6 6 7 7 9 8 7 6 5 7 9 9 6 4 5 7 10 12 12 12 12 10 10 9 11 11 12 12 11 12 12 14 0 0 0 0 0 0 2 3 6 7 8 9 9 9 9 9 9 10 10 11 12 14 14 14 14 14 13 14 13 13 14 12 12 11 10 10 11 11 12 13 14 14 14 14 14 15 13 7 5 7 8 9 9 9 8 7 7 9 10 9 6 4 6 8 10 13 12 11 11 11 10 10 10 11 12 12 11 12 12 14 0 0 0 0 0 2 3 4 7 8 9 9 10 10 10 9 10 10 11 12 13 14 14 14 14 14 14 14 14 14 13 12 12 12 12 11 11 12 13 13 14 14 15 14 13 14 10 6 6 8 10 10 9 10 10 9 9 10 8 8 6 4 7 8 10 12 12 11 11 11 10 10 10 11 12 12 13 13 13 14 0 0 0 1 2 3 4 4 6 7 8 9 10 11 10 10 10 10 11 13 12 12 13 13 14 13 14 13 13 13 13 13 12 12 12 12 12 12 13 12 14 15 16 14 14 10 4 5 7 9 10 10 11 11 10 10 11 11 9 8 6 4 8 8 10 12 12 12 12 10 11 10 10 11 13 13 13 14 14 14 1 1 2 2 2 3 2 1 4 7 8 9 9 10 10 10 10 10 11 11 12 12 12 13 13 14 14 13 13 13 13 13 13 12 12 12 11 12 13 12 13 14 15 14 13 7 0 4 7 8 10 11 12 12 12 11 11 11 10 9 5 4 7 9 11 12 12 12 12 11 11 11 11 11 12 13 14 14 15 15 1 1 2 1 0 1 1 2 5 7 8 9 9 9 9 10 9 9 10 10 10 10 11 13 12 13 14 14 13 13 13 13 13 12 12 12 12 12 13 13 13 14 14 15 14 5 0 3 6 8 10 12 12 12 12 11 11 11 10 9 6 3 6 9 11 13 12 12 11 12 11 11 11 12 13 13 15 14 14 15 1 1 0 0 0 0 0 2 5 7 7 8 8 8 9 10 9 9 9 9 8 9 10 11 12 13 13 13 13 13 13 13 12 12 12 12 12 12 11 11 13 13 14 14 14 8 0 3 6 6 10 11 12 12 12 12 12 12 11 9 5 3 6 8 11 12 12 11 11 12 11 11 12 12 12 13 14 15 14 15 1 1 0 0 0 0 2 4 6 7 7 8 8 7 8 9 9 8 8 8 7 8 8 9 11 12 12 13 13 15 14 13 12 12 12 11 12 12 10 8 12 14 14 15 15 13 3 2 4 5 10 11 11 12 12 12 12 12 11 10 6 4 5 8 12 13 12 11 11 12 12 11 12 12 12 12 15 15 15 15 0 0 0 0 1 2 4 4 5 7 7 7 8 8 8 8 9 8 7 6 6 7 7 8 10 11 12 13 14 15 13 13 14 13 12 12 12 12 10 9 11 12 15 16 16 16 11 6 4 6 10 11 11 12 13 12 13 12 12 10 7 4 5 8 12 13 12 12 11 11 11 12 13 13 13 14 14 15 15 16 0 1 1 2 3 3 4 5 6 6 6 6 8 8 8 8 8 7 7 6 6 6 6 7 8 8 10 11 12 13 13 13 13 13 12 13 12 12 11 9 10 12 15 16 17 15 15 11 6 8 12 12 12 12 12 12 13 12 13 11 7 3 5 9 12 12 11 12 12 12 12 12 12 13 13 14 13 14 15 15 0 1 2 2 2 2 5 5 6 5 6 6 8 8 8 8 8 7 7 6 7 7 6 6 6 7 7 9 10 12 13 13 13 13 12 13 13 11 10 9 9 11 13 16 16 16 16 14 9 10 12 12 13 12 12 12 12 12 13 13 8 3 5 9 12 12 12 12 12 12 12 12 12 12 12 13 12 14 15 14 2 2 1 0 0 2 4 6 5 4 6 6 8 8 8 8 8 8 7 7 6 7 7 8 7 7 7 8 10 10 11 12 13 13 12 14 13 11 9 9 9 9 11 13 15 15 15 13 9 11 13 12 13 13 13 12 12 12 12 12 9 3 5 10 12 12 12 12 12 12 12 12 12 13 13 12 14 15 15 15 1 1 0 0 2 7 6 5 5 5 6 6 7 8 8 8 7 7 7 6 7 6 4 2 5 8 9 10 9 10 11 12 13 13 13 13 13 12 9 8 8 8 8 10 11 12 12 9 10 12 14 13 13 14 13 12 12 12 12 12 10 3 5 10 11 12 11 12 12 11 11 11 12 12 12 12 13 14 15 15 0 1 0 2 3 6 6 5 4 4 5 5 7 9 8 7 7 7 7 6 6 3 0 0 3 5 7 9 10 10 11 12 12 13 13 13 13 13 11 9 7 5 6 8 9 9 9 9 11 12 13 13 13 13 13 13 12 12 12 13 11 4 6 10 12 12 11 12 12 11 11 12 13 13 13 13 14 14 14 15 1 3 3 3 4 5 4 4 4 4 4 6 8 9 9 8 7 6 6 6 3 1 2 1 4 5 6 7 10 11 11 11 11 12 13 13 13 13 12 10 9 7 5 6 8 9 9 11 12 12 12 13 13 13 13 13 12 13 13 12 9 3 6 10 11 12 11 11 13 12 12 12 13 13 13 14 15 16 14 15 3 4 4 4 5 5 5 4 4 4 5 7 8 9 8 7 7 6 6 3 2 4 4 2 4 5 6 7 9 12 11 11 12 12 13 14 14 14 13 11 10 9 7 6 6 7 8 10 11 12 13 14 14 14 14 13 12 13 13 12 8 3 6 9 10 11 11 12 12 12 12 12 13 12 13 13 15 14 13 14 6 5 6 6 5 5 4 4 3 3 5 7 8 8 8 7 7 6 5 2 3 6 5 4 4 4 5 7 8 10 11 11 12 12 13 14 14 15 14 12 11 10 9 8 7 7 7 9 11 12 13 13 13 13 13 12 12 13 12 11 9 2 4 9 10 11 11 12 12 12 13 12 12 13 13 14 14 15 15 13 5 4 4 3 3 2 3 2 2 3 6 6 7 8 8 8 7 6 2 1 0 1 4 3 4 6 7 8 8 10 12 13 12 13 13 14 14 14 14 14 13 12 10 10 9 8 8 8 9 11 11 12 12 13 13 12 13 13 12 12 11 4 2 7 10 11 11 11 11 12 13 12 13 13 14 14 14 16 15 11 3 2 1 0 0 1 1 1 1 2 5 7 8 7 8 8 8 4 0 0 0 0 0 2 3 6 7 8 9 10 12 13 13 13 13 13 14 14 14 14 13 13 12 11 9 9 9 9 9 10 10 11 13 12 12 13 13 12 12 12 11 7 3 6 9 11 12 12 12 11 12 13 14 14 14 15 15 15 14 11 0 0 0 0 0 1 0 0 1 1 4 7 9 8 9 8 8 2 0 0 0 0 0 1 5 8 8 10 10 9 12 13 13 14 13 13 12 14 15 15 15 14 13 11 11 11 10 10 10 10 10 10 11 10 11 12 12 12 12 13 11 10 6 6 8 10 11 12 12 12 13 13 15 15 15 16 15 15 12 11 1 1 2 1 1 1 0 0 0 3 6 7 9 9 8 8 7 1 0 0 0 0 0 0 4 8 9 10 11 11 12 12 13 13 15 14 14 14 14 14 15 15 14 13 13 12 12 11 11 11 11 10 10 11 11 11 11 12 12 12 11 11 9 8 9 10 12 12 12 13 13 14 15 15 16 16 15 13 11 11 2 2 1 1 1 0 0 0 1 5 6 6 8 9 9 9 6 0 0 0 0 0 0 0 4 8 10 10 11 12 12 12 12 13 14 15 15 14 14 15 15 15 15 14 14 13 13 12 12 12 11 11 12 13 12 12 11 11 12 11 12 12 12 11 11 12 12 12 12 13 13 14 15 16 15 15 14 13 11 11 0 0 0 0 0 0 0 1 2 4 5 7 8 10 10 10 6 0 0 1 1 0 0 1 5 9 11 11 12 12 12 13 12 13 13 14 15 15 15 15 15 15 15 15 14 14 14 14 13 14 13 13 13 13 13 12 11 11 12 12 12 12 12 13 13 14 13 12 13 13 14 14 14 16 16 15 14 12 11 13 0 0 0 0 0 0 1 1 1 1 5 8 8 9 10 11 6 0 0 2 2 1 0 2 5 10 12 12 11 12 13 13 13 13 11 14 14 15 15 14 15 15 16 16 15 14 15 14 14 14 13 13 13 14 14 13 13 12 13 14 12 13 14 15 15 14 14 14 14 14 15 15 15 16 16 15 14 12 12 12 0 0 0 0 0 0 0 0 1 4 7 8 10 10 10 11 6 0 2 2 2 2 4 6 6 11 13 13 13 12 13 13 13 13 14 14 13 14 14 15 15 15 16 16 15 16 15 15 14 14 15 14 14 15 14 14 14 13 14 14 13 14 14 15 14 14 14 16 15 16 15 16 15 15 16 15 12 12 12 13 0 0 0 0 0 0 0 2 2 3 7 9 10 10 11 12 7 1 6 9 9 11 12 7 6 11 13 14 14 13 13 14 14 13 14 14 14 15 15 15 16 16 16 16 15 15 16 15 14 14 16 15 15 15 14 14 15 14 14 14 15 15 14 15 14 15 15 16 16 15 16 16 16 15 15 15 13 13 12 13 0 0 0 0 0 0 0 0 0 1 5 8 10 11 11 12 8 0 4 12 16 18 14 6 7 12 14 14 15 14 13 13 14 14 13 13 14 15 16 15 16 16 16 16 16 16 16 14 14 15 16 15 14 15 14 14 15 15 15 14 15 15 16 15 16 15 15 16 17 16 16 16 16 15 15 14 13 12 13 13 0 0 0 0 0 0 0 0 0 2 5 7 10 11 11 12 10 2 1 8 13 15 10 5 9 13 14 15 15 15 14 14 14 15 14 15 16 15 16 15 15 17 17 17 18 17 16 16 16 16 16 16 15 14 15 14 15 15 15 15 15 16 15 15 15 16 15 15 16 16 17 16 16 15 14 13 13 12 13 14 0 0 0 0 0 0 0 0 0 3 5 7 10 11 12 12 11 4 0 3 9 10 6 6 10 13 14 16 15 14 14 14 14 16 16 15 16 15 16 16 16 17 17 16 17 17 17 17 16 15 15 15 15 14 16 15 15 15 15 15 14 15 16 15 15 16 16 16 16 17 16 16 16 15 13 12 13 13 13 14 0 0 0 0 0 0 1 1 1 3 4 5 9 12 13 13 12 7 2 0 3 5 5 7 12 13 15 15 15 15 15 15 14 15 16 16 17 17 16 16 17 17 16 16 16 17 16 17 16 16 15 16 15 15 16 16 15 15 15 15 14 15 16 16 16 16 16 15 16 16 16 16 16 15 12 13 13 13 13 13 1 0 0 0 0 0 0 0 1 2 4 6 9 11 13 13 13 10 4 1 0 2 4 8 12 13 15 16 16 16 15 16 16 16 17 17 17 16 16 16 16 17 17 16 16 17 17 17 17 17 16 16 16 16 15 15 15 15 15 15 16 16 16 16 16 15 15 16 16 17 16 16 15 14 12 13 13 13 13 13 1 1 1 0 0 0 0 0 0 1 2 4 9 11 13 13 12 12 6 3 1 1 4 9 11 13 15 16 16 16 15 16 17 17 17 15 16 15 17 17 16 17 16 17 17 18 17 17 17 17 16 16 16 16 16 16 16 16 15 15 16 16 16 15 17 16 16 17 16 17 16 16 15 14 13 14 13 13 13 13 0 1 1 0 0 0 0 0 0 0 1 4 7 10 11 12 13 13 10 5 4 2 5 8 10 12 15 16 16 17 16 17 17 16 16 15 16 17 16 16 16 17 16 16 17 18 17 17 16 17 17 16 17 16 17 16 16 16 16 16 16 16 15 15 16 16 16 16 16 17 16 15 11 12 13 13 13 14 13 13 0 0 0 0 0 0 0 0 0 0 2 4 6 8 10 12 13 14 13 10 7 5 5 7 11 13 15 16 17 17 17 17 17 16 16 17 16 17 16 16 17 17 16 17 17 17 17 18 17 17 17 17 17 17 16 15 16 16 16 16 16 17 16 17 17 17 16 17 15 16 15 8 2 2 3 3 6 10 13 14 0 0 0 0 0 0 0 0 0 0 2 4 5 7 10 11 13 14 13 12 10 7 5 7 9 13 16 16 16 17 17 17 17 17 16 17 17 16 16 16 16 17 17 15 15 17 18 17 17 17 17 17 18 17 15 16 17 16 16 16 17 17 16 17 17 16 16 17 16 16 10 1 0 0 0 0 0 1 8 13 0 0 0 0 0 0 0 0 1 0 1 3 3 4 8 12 13 13 13 13 13 9 7 8 9 13 17 17 17 17 16 17 17 17 16 17 18 17 16 17 17 17 18 15 14 17 17 17 17 17 18 17 17 17 16 16 16 17 16 17 17 17 17 17 16 17 17 17 16 11 2 0 0 0 0 0 0 0 8 11 0 0 0 0 0 0 0 0 1 0 0 0 1 3 8 12 12 12 13 14 13 12 10 10 11 14 16 17 16 17 17 17 18 17 17 17 18 17 16 17 17 17 17 17 17 17 17 18 17 17 17 17 17 17 17 16 17 17 16 17 18 17 17 16 16 17 17 17 12 2 0 0 0 0 0 0 0 0 9 16 0 0 0 0 0 0 0 0 0 0 1 3 5 9 10 11 12 13 14 14 13 14 12 11 13 14 16 17 16 17 18 18 18 18 17 17 18 16 16 17 17 17 17 17 18 17 17 17 17 17 16 16 17 17 18 18 17 17 17 17 18 17 16 17 17 17 16 12 3 0 0 0 0 0 0 0 0 0 5 17 0 0 0 0 0 0 0 0 1 3 4 6 7 9 11 12 13 12 13 13 13 14 13 13 13 14 16 17 18 17 18 18 18 18 18 17 17 17 16 17 16 17 17 17 17 17 17 17 17 16 16 17 17 16 17 18 17 16 16 17 17 17 18 17 17 16 12 3 0 0 0 0 0 0 0 0 0 0 3 17