P2
80 80
255
124 123 124 126 129 130 127 120 109 72 51 32 26 22 19 19 17 16 22 40 65 79 97 118 132 144 149 156 157 162 164 174 163 150 137 124 108 100 100 107 108 104 97 100 104 103 105 105 102 97 96 92 93 96 92 90 85 81 80 78 68 68 72 71 71 73 70 66 66 63 59 56 51 42 32 25 16 13 23 49 123 126 125 126 132 133 135 126 84 49 38 28 25 23 19 15 14 14 12 26 57 76 99 112 126 137 148 152 161 168 175 185 174 157 141 130 111 87 93 111 109 107 106 99 103 105 110 112 100 100 105 101 98 101 99 91 86 83 81 76 69 70 69 70 67 66 69 65 67 64 60 60 54 47 37 28 21 14 10 15 127 128 129 133 136 137 138 105 54 33 33 25 23 24 21 15 13 11 8 16 51 83 101 108 121 138 144 144 154 160 175 183 179 165 142 130 112 98 105 114 113 109 105 97 94 110 115 117 106 107 113 112 108 105 106 96 87 85 89 83 77 78 75 69 62 62 62 59 62 63 59 58 54 49 44 35 26 17 14 9 128 132 134 136 140 134 125 78 40 28 32 22 23 23 19 14 11 8 6 11 48 87 94 103 114 130 135 143 149 156 180 191 188 174 146 123 109 105 114 119 121 116 106 102 99 113 118 119 113 117 116 116 117 111 107 99 96 95 96 91 83 80 74 72 68 63 62 61 57 56 55 52 53 50 46 39 33 25 18 13 131 138 139 136 135 130 106 67 36 32 32 23 20 20 18 13 7 3 4 11 44 76 87 98 106 121 137 146 157 155 175 188 189 179 149 122 110 106 121 129 127 121 114 113 115 118 121 120 121 121 127 133 125 116 108 105 109 111 106 94 83 83 77 76 75 69 66 65 62 57 54 50 47 47 46 41 34 29 21 14 137 144 142 139 136 129 103 63 36 29 28 22 18 17 15 11 3 2 3 12 37 66 82 90 97 109 133 148 158 156 164 179 188 178 149 122 112 112 125 134 131 125 124 129 124 133 135 127 130 133 136 133 126 116 111 111 112 112 116 104 91 83 80 80 77 77 74 70 68 61 56 49 45 44 45 42 35 31 25 16 137 146 144 141 134 125 103 58 32 24 24 18 16 15 12 7 2 2 2 13 37 59 73 83 91 100 124 142 152 160 165 177 183 172 147 121 113 125 134 143 142 133 133 136 132 141 139 134 137 143 138 128 126 120 112 116 119 120 114 108 97 88 89 85 80 79 79 77 76 69 61 49 44 41 38 38 39 34 29 19 146 146 151 144 136 127 103 54 30 21 19 17 13 12 10 5 2 2 2 13 37 52 66 74 85 94 118 140 153 165 167 170 172 172 146 119 112 143 148 150 152 148 145 142 148 151 147 140 141 135 135 132 131 128 124 116 113 121 109 109 102 96 93 90 87 83 81 81 78 69 63 49 42 39 36 33 35 36 30 20 152 153 158 145 135 126 94 54 28 24 13 14 10 10 8 2 1 2 3 16 34 51 62 61 79 94 113 139 150 163 165 163 169 172 143 120 128 156 154 154 162 160 161 158 161 162 149 141 144 138 136 140 142 136 131 118 107 113 114 110 100 96 96 92 86 86 83 82 78 68 59 51 43 37 35 28 30 31 29 22 158 160 156 145 139 125 96 54 25 26 15 11 9 10 7 2 3 4 6 20 40 47 57 60 77 91 104 136 150 161 161 164 174 171 138 130 142 169 165 163 168 166 167 169 173 172 165 153 143 146 144 143 140 144 133 120 115 117 114 104 94 91 93 92 88 86 79 78 78 68 56 53 46 34 31 25 25 26 27 24 169 161 153 148 141 127 101 55 26 17 12 8 7 9 4 1 4 5 10 35 49 39 54 62 74 87 98 133 146 155 156 156 167 162 141 138 164 178 178 173 174 178 180 174 179 168 160 156 141 145 143 141 139 141 137 126 117 118 106 101 98 95 93 88 87 82 74 73 74 65 55 47 42 30 26 25 21 27 29 26 174 169 153 144 138 125 103 60 25 15 9 6 8 9 3 2 5 6 25 63 72 53 50 64 70 84 91 132 143 151 149 146 152 154 144 151 170 178 173 182 186 175 176 180 175 175 159 154 143 146 140 139 134 134 131 124 112 106 104 99 98 96 88 81 79 76 72 66 67 64 52 38 33 24 25 25 22 30 30 28 162 161 154 146 137 119 103 66 27 17 10 6 6 9 4 3 4 6 29 70 89 73 49 52 58 71 83 127 141 144 147 145 149 153 147 168 177 193 182 183 185 174 174 183 174 178 165 154 141 136 126 132 135 135 131 116 105 101 97 96 93 90 85 79 70 68 63 64 61 54 45 36 28 24 28 27 26 33 34 30 159 156 144 142 138 118 102 67 30 15 13 8 4 9 3 2 1 1 8 44 89 84 51 48 54 67 83 127 144 140 138 142 152 153 154 175 188 193 198 199 189 177 181 177 174 163 162 160 153 133 123 125 129 130 125 116 104 98 87 87 90 84 83 73 64 62 55 54 51 41 36 33 29 28 30 32 34 36 34 33 157 153 144 144 137 113 97 72 33 18 10 7 5 8 2 0 0 1 2 12 62 97 57 49 60 67 86 128 142 141 138 140 146 148 159 182 192 198 203 208 192 186 185 179 156 157 153 143 149 140 126 123 127 127 125 115 107 98 91 90 86 82 78 72 59 54 46 42 37 33 33 33 32 32 33 37 41 40 36 39 157 156 148 148 135 116 99 69 30 17 8 6 6 6 2 0 1 1 2 5 38 130 73 47 61 62 86 127 136 144 137 138 151 156 169 185 186 188 195 193 189 184 180 167 152 142 137 136 138 131 119 126 126 120 126 117 111 101 94 91 90 81 71 64 48 39 34 33 30 32 35 38 38 38 39 44 41 43 46 46 176 172 152 142 132 119 101 67 26 11 6 4 6 7 0 0 1 1 1 5 24 101 70 46 62 58 90 125 140 139 133 145 161 170 179 186 190 202 196 182 190 181 175 155 145 139 131 131 124 118 123 130 129 125 124 118 112 102 96 95 87 81 67 51 38 27 24 28 35 37 41 48 44 45 43 43 41 47 53 54 179 168 157 144 135 122 94 57 26 11 4 4 7 8 0 0 1 1 1 5 14 61 63 44 57 59 97 122 136 126 131 155 167 176 184 186 206 204 189 178 177 172 162 145 142 131 123 114 119 122 136 136 141 141 131 121 112 105 98 94 83 74 58 38 22 15 21 31 45 49 50 52 53 50 46 43 50 51 61 65 194 183 168 147 129 118 88 50 18 11 5 4 7 6 1 0 0 1 3 6 15 62 55 47 49 59 96 118 129 126 136 165 177 183 179 184 199 191 182 165 169 160 144 138 132 117 108 108 120 130 137 145 153 148 135 124 112 107 97 95 81 60 47 26 11 10 22 37 54 60 60 58 58 52 48 51 54 57 69 75 203 184 165 151 129 112 83 49 18 10 5 4 7 7 1 0 1 3 7 7 20 61 48 48 45 68 103 117 126 128 148 173 182 185 183 184 193 194 164 153 167 152 131 126 115 108 101 113 134 148 149 154 160 152 140 134 121 112 99 94 78 57 42 21 9 8 23 51 65 68 70 67 61 54 48 53 59 67 78 80 204 189 166 154 131 101 78 52 25 10 5 4 6 8 2 1 0 2 7 9 24 53 46 45 45 76 103 120 122 133 163 177 180 183 183 185 184 177 158 151 154 138 122 114 108 106 110 134 149 157 160 160 161 153 144 135 123 115 101 89 76 61 40 19 9 5 28 66 76 81 83 77 63 57 52 54 65 76 84 83 209 189 172 148 129 107 76 48 31 15 6 5 7 9 2 5 5 4 9 15 20 48 50 47 52 84 106 123 128 151 174 177 177 178 180 176 170 162 154 144 145 125 110 113 113 122 136 146 155 162 163 162 159 149 143 130 120 114 104 85 73 61 40 19 7 4 39 82 95 97 90 82 65 58 53 61 72 80 88 94 221 186 167 142 125 106 86 49 29 20 9 6 6 10 3 4 9 11 13 10 16 55 57 49 64 91 119 133 149 171 179 181 180 180 177 174 164 159 146 137 129 111 114 128 135 139 153 159 162 163 162 165 156 141 142 132 119 121 105 91 81 64 41 21 5 14 66 97 104 103 93 81 66 57 56 61 74 81 92 99 223 181 155 135 118 101 82 57 32 17 12 9 8 10 6 3 6 10 9 5 12 55 69 58 86 104 131 145 166 178 175 170 172 179 168 163 157 150 145 129 115 107 125 140 157 166 169 177 171 167 167 167 158 155 146 135 125 120 102 91 79 66 43 21 5 27 88 102 105 102 93 80 68 56 54 62 75 86 97 99 216 187 165 136 111 96 86 69 48 24 10 9 9 10 8 5 3 5 6 3 9 43 63 68 104 124 138 162 173 171 165 163 160 155 158 158 147 143 133 114 111 115 132 146 166 182 186 194 184 176 166 164 164 157 145 130 128 123 105 89 75 66 49 23 5 34 86 97 103 98 90 75 64 56 56 62 70 87 93 99 209 185 159 138 117 95 84 76 57 39 20 10 10 11 9 4 4 2 3 2 7 36 65 94 114 129 145 166 166 161 156 151 147 147 142 139 132 124 113 103 114 129 138 132 127 119 140 186 192 181 166 163 161 154 144 130 122 114 105 96 85 71 51 22 4 39 87 95 92 91 81 67 57 54 60 68 70 84 92 106 198 198 154 139 115 93 79 71 59 43 30 19 13 12 12 7 4 3 2 2 5 29 75 105 117 130 155 163 162 159 157 151 137 133 134 125 113 101 96 107 123 136 131 120 98 70 54 113 177 169 158 156 153 147 145 134 121 110 110 99 91 72 44 15 3 38 89 93 84 78 65 57 52 52 56 64 66 80 93 112 190 173 155 139 117 99 84 64 52 43 33 24 17 13 13 10 4 3 3 2 3 27 88 109 122 141 154 160 160 157 149 141 134 132 128 116 100 89 92 105 125 134 130 115 91 58 32 38 88 124 158 152 150 144 133 126 120 113 120 117 98 66 34 10 2 45 96 90 80 68 54 49 46 48 53 63 72 81 86 107 176 161 157 139 125 102 91 79 67 53 41 34 23 16 15 13 8 3 2 3 4 25 85 115 132 144 156 160 162 156 144 138 137 140 133 122 111 100 101 112 124 123 118 106 85 49 23 15 15 43 127 148 144 142 128 123 127 123 127 119 95 61 25 7 6 56 95 98 76 57 44 38 37 40 49 61 79 81 85 102 178 161 154 135 127 101 88 86 69 55 51 43 31 19 16 15 11 7 4 4 9 43 96 122 134 144 154 163 161 152 146 144 143 144 135 128 124 121 119 119 115 113 106 95 73 40 13 7 7 9 69 136 139 131 122 125 127 135 131 115 90 49 15 6 15 66 95 103 73 49 32 24 28 34 43 58 75 89 98 109 187 167 154 145 129 104 94 84 70 64 59 46 37 25 18 17 14 10 8 10 27 76 111 126 140 144 146 146 145 144 149 144 139 133 135 138 143 142 137 130 126 122 112 90 64 38 10 5 6 4 44 119 125 120 119 129 134 139 129 112 83 36 11 5 31 81 102 97 68 38 21 15 19 26 37 56 70 100 119 123 167 163 163 146 135 121 101 96 88 69 55 45 38 31 23 21 21 15 12 22 58 102 121 132 138 137 135 137 139 140 140 132 130 134 146 149 151 155 147 143 135 131 120 92 67 40 14 4 6 4 35 104 116 115 115 130 128 131 132 115 77 29 11 8 45 92 98 91 67 28 14 11 12 19 31 47 77 114 129 130 173 180 165 142 139 134 120 112 96 73 64 51 41 36 30 30 36 32 37 53 88 112 120 121 121 123 124 125 126 127 126 131 137 146 154 156 158 161 158 153 140 133 121 95 68 43 20 4 6 5 26 88 109 116 121 125 120 130 131 116 73 24 13 9 56 111 110 87 57 25 8 10 11 14 22 43 93 125 130 119 183 168 155 152 142 141 135 115 96 84 76 57 49 44 46 44 56 72 86 95 102 107 110 115 115 117 121 125 130 134 136 142 150 156 160 165 170 179 175 157 144 136 118 97 70 46 26 7 4 4 17 76 103 113 123 119 122 141 137 120 71 22 14 9 45 120 121 77 55 26 9 10 10 10 14 41 98 126 136 123 158 155 157 155 144 147 133 113 102 91 83 67 67 68 63 55 88 114 123 125 129 130 131 134 134 136 141 139 145 150 151 154 160 164 172 181 193 191 189 168 155 137 113 93 68 47 29 12 4 3 8 61 103 110 116 111 119 139 142 123 75 24 15 11 40 136 137 78 50 26 9 10 10 10 9 37 99 131 138 123 150 154 158 150 143 143 129 118 109 96 89 85 87 77 71 77 116 137 150 153 155 157 156 151 156 154 153 151 157 161 160 161 166 174 186 200 201 210 224 202 168 138 113 88 68 45 29 16 5 3 2 32 89 98 95 93 100 120 126 116 82 28 13 11 40 138 142 82 49 25 10 10 10 10 6 38 100 132 145 131 144 139 142 139 142 136 128 121 112 99 87 90 92 82 90 109 133 154 170 176 176 174 176 180 184 186 175 183 177 179 175 182 193 204 203 216 206 233 248 215 167 134 110 88 67 43 24 16 10 3 2 6 42 71 71 74 72 85 98 108 90 36 14 9 35 129 137 79 46 22 9 8 9 9 4 42 103 132 146 125 137 136 148 154 143 144 138 121 107 99 86 88 81 89 106 137 152 173 189 195 197 199 215 230 224 221 212 209 201 197 196 205 204 224 223 225 232 235 244 198 152 129 112 88 64 37 20 14 13 6 3 3 10 36 49 48 48 59 83 108 105 49 20 11 30 120 131 77 41 18 9 8 8 8 3 46 110 137 139 103 147 157 163 152 148 146 135 116 104 94 89 90 84 98 129 137 160 177 205 211 214 220 226 213 206 198 208 184 170 166 171 179 179 181 198 193 194 206 205 182 141 116 105 85 58 35 18 13 12 7 4 4 4 10 24 29 41 60 87 114 117 59 26 13 20 115 122 71 41 18 8 7 7 6 1 38 107 133 124 85 176 181 177 168 152 151 132 112 101 90 86 86 93 97 122 136 148 153 180 189 183 176 181 176 173 159 167 160 149 143 138 146 146 142 148 156 159 167 163 148 130 114 95 75 50 29 16 12 12 7 5 5 4 4 8 26 52 77 99 110 116 67 30 13 11 68 102 71 36 16 7 6 6 5 1 26 96 123 103 77 192 202 193 190 175 165 148 118 106 85 77 82 88 90 101 114 120 133 141 147 149 145 145 146 143 130 136 140 134 126 117 120 122 124 127 138 140 138 135 125 114 103 84 64 37 20 13 11 11 6 4 4 3 4 4 17 59 91 109 122 127 72 30 12 6 40 83 59 34 14 6 7 6 5 0 18 87 110 87 75 213 203 196 182 172 157 147 116 103 88 77 72 79 81 90 98 97 114 117 117 120 121 121 122 120 123 120 116 110 105 102 99 104 109 116 121 125 121 123 116 102 88 70 53 30 15 11 11 9 4 4 4 5 4 4 5 41 102 126 149 132 63 23 9 2 40 99 66 34 14 6 6 5 4 0 11 75 109 96 74 209 190 185 176 166 154 135 116 97 89 79 65 66 69 70 70 72 89 95 95 97 99 98 99 95 96 99 93 88 83 80 81 87 95 105 115 116 108 103 104 93 78 63 40 20 12 9 9 6 4 4 4 4 4 5 3 28 105 136 157 117 47 14 7 3 30 86 64 33 15 6 4 4 4 1 7 64 101 96 81 180 176 190 189 169 147 126 113 100 88 73 57 51 52 51 46 46 62 64 69 71 74 74 72 70 69 68 65 62 60 59 60 69 79 93 103 105 101 98 96 81 68 50 26 13 9 9 6 4 4 4 4 4 4 5 4 28 107 135 133 89 32 8 5 4 29 85 65 33 15 7 6 6 6 2 4 50 88 91 86 172 170 181 179 151 127 119 107 93 75 61 49 40 35 34 30 25 34 35 37 40 41 40 40 42 42 41 41 39 39 39 43 56 68 79 85 90 83 87 81 66 51 34 18 10 8 8 3 3 5 4 4 4 4 4 5 27 108 131 112 69 19 6 4 4 34 82 62 32 13 7 6 5 5 2 2 40 85 93 97 162 169 159 137 129 116 112 105 88 66 52 39 28 21 17 14 12 15 15 15 16 17 17 17 16 18 19 22 20 21 20 27 43 53 63 70 77 76 68 58 45 36 27 15 10 9 6 2 3 4 4 4 4 4 5 6 21 90 117 88 43 10 6 4 6 46 81 54 31 14 8 6 5 4 2 1 30 77 93 87 162 152 138 125 121 109 106 99 78 56 43 29 21 13 10 9 8 8 8 9 9 8 9 9 9 10 10 12 13 13 14 17 24 38 49 59 62 58 51 40 32 29 22 12 10 9 4 1 3 4 4 4 5 4 5 6 11 58 95 62 22 7 7 4 5 44 75 47 28 14 8 7 7 5 2 0 21 74 90 73 177 156 132 126 114 93 92 80 61 46 36 28 19 9 7 8 7 6 6 7 7 6 7 7 7 8 9 10 11 12 13 13 15 26 33 41 43 39 34 29 24 21 16 12 9 9 3 1 2 3 5 5 5 5 5 6 7 35 80 53 17 7 7 3 4 37 60 41 26 13 7 7 7 5 3 2 12 63 82 67 173 150 130 115 106 87 81 70 51 38 28 22 14 7 7 6 7 5 5 5 4 5 6 6 8 8 9 10 9 10 10 10 12 17 19 21 22 22 21 19 17 14 13 11 10 10 3 1 0 2 4 5 5 5 5 6 6 23 65 50 15 6 6 2 5 34 51 40 27 13 7 7 7 5 4 3 5 47 70 62 147 141 118 110 95 79 69 60 46 34 24 15 8 7 6 6 5 4 4 3 4 4 4 6 12 23 26 25 20 17 14 12 12 13 15 14 14 13 14 15 15 14 12 11 11 10 6 2 1 2 4 4 4 6 6 6 6 13 49 44 13 6 5 3 7 31 47 38 25 12 7 6 6 6 4 3 3 34 66 65 134 129 115 102 83 77 67 52 40 26 15 8 5 5 5 5 4 3 3 2 3 3 4 5 18 49 59 61 58 50 43 34 26 19 20 18 14 12 11 12 13 14 13 11 11 10 9 4 2 4 4 5 4 6 6 6 6 7 30 38 14 5 4 3 6 25 39 33 22 12 8 7 6 5 5 4 2 26 67 70 130 118 107 93 84 75 59 43 31 17 10 5 4 4 4 5 3 1 1 2 2 2 2 3 16 49 64 70 71 68 64 57 45 39 34 26 15 12 11 12 14 16 17 16 12 10 9 6 5 6 5 6 6 6 6 6 6 6 17 34 18 5 4 1 5 20 34 33 18 8 8 7 6 5 5 4 2 18 58 66 124 110 104 93 83 75 57 42 27 16 7 3 3 4 5 4 1 1 1 1 1 1 3 3 9 44 66 67 64 61 53 45 42 44 42 33 19 12 11 10 12 20 26 23 16 12 11 9 6 6 7 6 6 5 6 6 7 6 10 25 17 6 4 2 3 10 24 29 16 7 8 6 6 6 5 4 3 13 49 56 119 106 100 91 83 74 57 39 25 15 6 3 2 3 4 1 1 1 0 0 0 1 3 4 4 30 62 66 63 58 52 48 49 49 45 38 28 18 13 9 8 11 18 21 19 15 13 8 5 6 7 7 6 6 5 6 6 6 7 13 13 8 4 2 3 5 19 25 12 8 8 7 6 6 5 4 3 10 40 50 109 99 87 85 87 74 58 41 26 11 5 3 3 3 4 0 1 1 1 1 1 2 2 3 8 37 56 69 67 61 56 58 58 59 56 49 43 38 34 27 20 15 11 9 10 10 7 5 6 6 7 7 7 6 6 6 5 6 6 9 11 7 4 2 3 3 11 17 9 7 8 7 6 6 5 4 3 9 37 53 103 96 89 85 86 75 59 40 19 8 5 3 3 3 2 0 0 1 2 1 0 1 2 3 11 45 61 66 71 69 66 65 65 66 67 63 61 59 58 55 54 48 38 24 14 9 7 7 7 8 8 7 5 5 6 6 6 6 6 7 8 7 5 2 2 3 5 8 7 7 8 7 6 5 4 4 4 8 34 50 101 99 100 96 85 72 55 33 17 9 3 2 3 3 1 0 1 2 3 2 1 1 2 3 10 41 61 66 72 74 73 73 70 69 73 74 80 77 71 73 75 74 73 64 49 32 18 11 9 9 8 7 7 6 6 6 6 6 6 7 8 8 6 2 1 3 5 6 7 7 8 7 6 5 4 4 4 8 32 46 97 101 99 93 83 71 48 27 17 8 3 2 2 3 0 0 2 2 4 4 2 1 3 3 12 41 62 72 72 78 81 82 79 80 80 88 91 81 82 85 83 82 79 80 79 71 55 33 16 11 9 8 7 7 8 7 6 5 6 7 7 7 8 3 0 4 6 7 8 7 7 7 5 5 5 4 4 10 32 38 99 98 90 84 79 68 50 30 13 6 2 2 3 3 0 0 1 1 1 4 2 1 3 5 17 37 61 78 75 77 85 84 85 88 92 98 89 89 94 91 90 88 80 84 81 79 78 68 47 26 15 10 10 8 7 6 6 5 7 7 6 8 7 3 0 3 6 7 7 6 7 6 5 4 4 4 4 13 28 33 98 90 83 78 74 67 53 30 13 8 2 0 1 2 0 0 0 0 0 1 2 2 3 10 19 35 59 78 78 75 85 91 87 82 92 91 89 97 95 92 91 86 87 87 81 81 77 76 72 59 43 28 20 17 14 13 10 8 8 7 6 6 6 3 1 3 5 6 7 7 7 6 5 5 5 4 5 13 22 27 88 81 77 77 76 63 46 26 12 7 0 0 1 1 0 0 0 0 0 1 2 2 4 10 20 32 53 72 74 75 81 90 86 81 87 89 92 95 95 93 89 91 93 90 90 88 81 76 70 68 68 65 53 49 43 36 25 19 14 9 7 7 6 3 1 2 4 5 5 5 6 7 6 5 6 5 7 12 20 23 87 79 72 74 75 61 45 25 10 2 1 1 0 1 0 0 0 0 0 0 0 1 5 9 18 30 51 64 70 76 77 87 89 86 94 99 104 102 102 99 95 96 98 94 95 90 87 80 75 70 69 72 67 63 57 50 43 32 22 16 11 7 5 4 1 2 2 3 4 5 4 6 6 5 5 6 9 13 17 19 83 78 72 72 68 57 49 32 9 2 1 1 0 1 0 0 0 0 0 0 0 1 5 7 15 30 51 66 74 79 81 90 91 91 99 105 105 103 100 98 99 100 96 92 96 96 95 96 91 85 77 68 65 58 54 51 43 35 32 27 17 8 5 4 2 2 2 4 5 5 4 5 6 4 5 5 7 8 10 10 80 75 72 69 63 58 48 32 10 2 0 0 0 1 0 0 0 0 0 0 0 2 5 8 15 24 48 65 72 81 81 86 88 90 93 99 102 102 97 98 98 99 92 89 91 98 98 97 100 95 83 72 60 54 51 47 38 37 33 28 18 9 6 5 4 2 2 3 4 4 5 5 4 4 5 5 5 5 6 6 72 67 64 58 57 55 42 31 12 2 1 0 0 1 0 0 0 1 0 0 0 2 4 9 16 20 40 59 70 75 74 82 88 87 91 97 96 101 102 91 94 95 93 90 90 95 100 94 96 92 85 79 65 52 48 43 36 32 29 25 16 9 7 6 4 3 3 3 4 4 4 4 4 5 4 4 4 4 5 5 61 60 56 56 58 54 43 27 13 4 1 1 0 0 0 0 0 0 0 0 3 5 5 9 14 18 34 52 67 77 79 82 87 86 89 93 96 97 93 88 90 87 87 92 90 92 94 90 88 84 84 85 78 65 52 45 39 35 30 28 16 13 8 5 5 4 3 4 4 4 3 3 4 4 3 4 4 4 5 4 58 59 57 59 57 56 43 24 13 5 2 0 0 1 1 0 1 1 1 5 7 4 7 8 10 16 29 50 63 72 76 84 89 84 88 93 98 95 90 88 82 81 89 88 85 87 87 84 85 80 81 85 84 75 60 47 40 36 34 26 18 13 9 6 5 5 5 6 5 5 4 4 4 4 3 4 4 4 5 5 58 59 55 55 57 55 39 24 12 5 3 1 0 1 1 1 3 5 7 9 7 2 7 8 7 13 26 49 58 68 77 86 89 82 87 93 95 93 87 85 78 82 82 82 85 84 84 83 81 78 77 80 83 76 69 59 50 42 36 26 17 15 13 8 7 9 11 13 12 9 6 5 5 4 4 4 4 5 6 5 55 56 55 57 59 48 34 23 10 4 1 1 0 1 1 0 5 6 6 8 5 2 7 6 6 8 24 47 55 63 74 84 87 81 81 88 87 88 81 79 80 82 76 79 79 78 74 71 72 70 71 76 74 73 76 67 56 47 36 24 20 19 15 12 13 16 17 17 15 11 7 4 5 4 4 4 4 4 5 5 54 52 54 54 49 41 32 23 12 4 2 1 0 1 1 0 4 6 6 5 2 2 6 6 6 6 17 41 50 61 74 83 86 82 78 81 82 87 76 75 79 77 74 75 74 72 65 65 67 67 64 66 67 68 68 58 48 46 38 31 28 24 19 17 20 22 18 18 14 12 8 4 5 4 3 5 5 5 5 5 49 49 50 49 46 41 36 22 13 5 1 1 1 2 2 0 1 3 4 2 1 2 5 5 5 6 12 33 47 62 75 87 91 83 73 72 78 77 73 66 69 69 68 70 64 62 61 61 62 59 55 58 62 59 53 47 39 39 36 32 29 25 21 22 23 22 16 16 13 11 8 5 5 6 5 6 6 6 5 6 43 48 49 51 50 45 39 22 13 6 1 1 1 2 2 0 0 1 1 0 2 4 5 5 5 6 11 31 46 63 77 89 94 82 67 63 70 70 61 58 63 61 60 63 56 55 59 55 51 47 49 51 50 43 43 38 34 37 36 29 27 24 20 19 18 17 14 13 9 7 6 6 5 6 6 6 6 6 6 6 43 45 45 46 47 46 39 23 12 7 2 2 1 2 4 1 0 0 0 0 2 5 6 5 5 5 8 25 45 67 83 93 92 82 67 56 58 58 52 54 56 51 49 52 48 49 52 47 42 40 42 41 37 33 34 31 31 34 31 24 22 17 16 13 12 14 12 9 7 6 6 7 6 7 7 6 6 7 7 6 40 41 42 45 45 43 33 20 9 9 4 2 0 2 4 2 0 0 0 0 2 5 4 5 5 6 7 22 43 70 88 95 95 83 65 50 47 51 51 48 45 38 38 38 36 37 37 36 33 32 29 31 28 29 29 30 27 26 21 20 17 12 10 9 10 11 8 7 7 7 8 8 7 8 8 7 6 7 7 6 34 33 34 41 40 37 30 17 9 8 5 2 1 2 4 3 0 0 1 2 3 4 5 4 5 6 6 19 47 75 90 96 91 75 62 48 39 44 44 41 34 27 33 33 33 33 31 31 28 24 24 29 29 27 26 25 23 20 19 20 13 9 9 8 8 8 7 8 8 8 8 8 8 7 7 7 6 7 7 7 32 32 32 36 33 35 26 16 9 7 4 3 2 4 4 4 2 0 1 2 3 4 4 4 5 7 6 14 46 74 88 93 90 76 58 42 34 41 44 40 34 27 23 23 22 21 20 20 20 16 21 24 22 18 19 22 22 17 16 13 8 7 8 8 8 8 7 8 8 8 8 9 8 7 8 7 7 7 6 6 33 34 33 34 35 35 29 20 13 5 3 2 2 3 4 4 4 1 1 2 3 4 4 5 5 5 6 11 44 79 93 89 84 71 49 36 31 32 34 33 31 23 21 21 16 13 12 12 12 10 11 12 11 11 11 13 12 10 10 9 8 6 7 8 7 8 8 8 8 8 8 8 8 8 7 6 7 6 6 6 28 27 26 29 34 29 27 25 18 5 1 2 2 3 4 4 5 3 2 2 3 4 5 5 5 5 5 10 45 82 92 83 73 59 43 31 28 30 31 31 26 21 17 18 16 13 11 10 9 10 9 11 9 8 9 9 9 9 9 8 8 8 8 8 8 8 8 9 8 7 6 7 7 6 6 6 6 6 6 6 23 19 19 25 29 24 27 29 20 7 2 1 1 2 3 5 5 5 3 3 3 4 5 5 5 5 5 8 45 83 85 77 63 50 38 32 30 28 28 25 21 17 14 16 15 12 9 9 10 10 10 10 9 9 9 9 8 9 9 9 9 8 9 9 9 7 7 8 6 7 6 7 6 6 7 7 7 6 7 7 19 18 19 23 25 23 25 24 20 9 4 1 1 1 3 5 5 5 5 5 4 4 4 5 5 5 5 8 40 75 71 65 56 45 32 25 24 21 18 17 14 13 13 12 10 8 8 8 8 8 9 10 10 9 9 9 9 9 9 8 7 8 9 9 7 7 7 7 6 6 7 6 7 6 7 7 7 7 9 8