P2
80 80
255
14 16 19 22 23 23 19 18 15 11 5 2 4 13 19 25 34 35 40 44 47 50 62 69 70 73 76 74 71 72 72 76 74 74 76 79 79 75 70 68 67 67 68 67 65 66 64 64 62 64 65 63 63 64 60 58 56 55 55 55 52 49 45 43 39 35 30 25 21 16 10 7 6 7 5 6 12 24 31 36 20 20 23 24 23 22 18 16 14 8 4 3 7 16 27 36 42 45 49 49 49 43 51 55 60 66 69 68 69 71 76 77 77 79 81 82 82 80 71 69 70 70 70 68 67 67 66 66 67 69 67 68 69 67 67 66 61 60 59 56 54 54 51 49 48 44 40 35 30 24 19 13 9 8 7 6 6 11 24 34 27 27 28 26 26 23 20 17 12 4 2 4 9 20 32 43 49 52 52 51 47 35 35 40 46 55 60 62 67 70 77 80 79 84 86 86 85 82 78 76 75 73 72 69 69 66 66 68 70 70 71 72 68 71 70 70 65 65 63 61 59 57 56 57 56 52 50 43 35 30 25 21 16 11 9 7 6 6 11 25 33 33 32 30 28 25 25 20 11 3 1 5 10 22 39 50 58 54 50 44 35 27 23 29 38 47 54 59 65 69 74 79 84 87 90 92 91 86 82 80 80 79 75 73 73 71 72 72 73 72 75 74 72 73 74 72 70 73 70 67 67 62 60 61 59 58 55 50 47 40 32 29 25 17 14 12 10 7 6 13 38 36 33 32 31 32 31 27 11 4 3 5 14 23 45 53 64 54 40 27 17 17 18 21 30 40 49 58 63 69 74 79 87 90 91 93 94 91 90 87 86 84 80 79 78 78 77 75 74 75 76 77 75 73 72 69 69 69 67 67 66 63 61 61 59 60 57 51 51 46 39 36 32 24 19 17 15 12 9 8 42 38 36 35 35 35 35 31 11 5 5 7 12 25 48 59 61 47 22 11 9 14 18 14 21 31 44 55 64 70 76 81 86 89 93 95 99 97 100 95 91 89 85 81 78 77 78 79 77 77 76 75 72 73 72 70 67 63 65 65 64 64 63 60 59 58 57 54 51 50 46 40 37 33 26 24 20 18 16 11 42 41 40 39 40 41 40 31 14 6 6 7 14 31 57 64 56 33 12 10 9 26 25 15 18 26 39 54 65 71 77 80 85 90 94 99 102 102 100 97 94 92 87 83 80 79 81 82 79 79 81 79 74 74 77 75 72 69 71 71 70 70 65 61 61 58 58 57 55 51 48 43 39 39 35 33 31 23 21 18 46 46 45 44 48 49 39 28 15 6 8 8 24 39 70 67 51 21 12 10 17 37 30 18 21 29 39 52 65 72 76 78 86 92 95 101 105 105 97 93 93 91 88 89 87 85 86 86 87 87 86 84 79 74 74 78 76 77 76 75 71 68 65 65 66 62 60 61 57 54 54 47 44 44 40 36 31 28 26 24 50 52 51 53 56 54 39 25 14 7 8 13 30 43 74 70 39 16 12 13 37 43 33 24 27 35 41 51 66 74 78 80 88 94 99 106 108 102 94 91 92 93 93 95 95 93 96 95 91 92 90 89 86 81 80 82 82 83 81 79 74 72 69 66 66 63 62 63 60 59 56 53 48 46 43 38 33 31 30 28 58 58 59 63 63 60 44 21 10 6 11 19 27 46 74 68 31 19 12 34 69 66 51 27 28 41 50 57 69 78 82 84 89 97 103 108 111 102 92 98 99 102 97 102 103 102 100 97 95 95 94 90 87 84 84 84 84 84 81 77 75 74 70 65 68 68 67 66 66 63 61 57 51 48 46 40 38 34 31 30 63 64 67 69 70 63 52 28 7 4 10 18 26 54 76 60 26 20 16 72 96 89 84 42 31 50 59 64 71 82 88 89 94 98 108 114 113 105 102 103 103 107 105 104 104 100 102 101 100 101 100 92 89 84 83 80 78 80 81 78 78 76 73 71 75 77 74 71 74 68 64 62 53 47 46 43 39 36 34 32 68 70 75 78 78 70 64 48 12 3 9 15 23 50 78 50 23 19 26 73 64 70 97 61 38 59 66 71 77 87 91 93 94 103 111 113 112 109 108 108 110 110 106 102 105 105 106 104 105 104 103 96 93 89 85 82 80 82 85 85 83 83 82 84 88 86 84 80 76 71 68 66 60 54 47 44 40 37 37 35 74 78 83 88 85 77 75 55 20 4 7 12 21 50 77 44 23 19 18 23 16 23 59 61 45 60 72 78 83 91 94 96 100 108 113 115 111 111 112 115 118 117 112 109 111 113 113 108 108 109 107 97 90 86 84 79 79 78 78 82 80 86 88 92 95 98 94 84 78 76 70 66 64 60 51 43 40 37 37 35 80 82 88 95 92 84 81 55 33 10 6 9 19 53 79 46 30 16 9 9 10 12 19 36 46 60 79 86 89 97 100 100 110 111 116 114 110 115 116 119 125 125 118 115 113 121 120 116 113 107 102 93 88 86 79 77 74 61 57 64 64 85 91 89 89 98 91 80 80 76 68 65 64 61 54 47 42 36 35 35 85 85 92 96 96 93 86 59 39 12 7 13 19 53 80 46 34 18 7 6 6 9 11 22 49 73 90 93 93 100 102 105 112 115 116 109 111 116 115 124 127 125 123 116 117 129 127 123 119 111 103 96 92 86 76 75 61 43 38 37 49 70 80 78 71 90 79 73 74 72 69 69 63 58 53 46 40 38 36 34 88 90 96 100 100 100 91 65 35 11 14 16 18 43 77 52 47 29 6 6 5 4 10 24 62 93 101 98 98 100 105 109 116 120 111 104 111 116 119 123 124 127 129 131 132 132 129 126 124 117 107 97 90 82 66 54 39 31 31 36 48 50 68 69 59 68 67 61 59 64 66 68 63 64 58 51 44 40 36 33 93 97 102 105 105 104 94 74 32 11 15 15 15 34 72 60 59 43 8 6 24 15 8 27 73 101 106 102 104 106 109 113 117 119 110 102 112 120 124 127 131 134 136 140 140 136 137 134 126 117 108 97 88 68 51 35 28 30 34 42 46 51 65 60 47 47 55 47 47 51 57 57 53 53 55 55 52 45 36 31 99 102 103 108 110 109 101 83 47 17 10 18 15 29 67 64 67 56 10 6 93 49 13 39 79 102 105 104 111 108 112 116 118 117 108 105 116 126 128 132 137 140 145 143 143 142 143 133 126 120 107 92 79 58 48 32 22 24 37 39 50 58 60 52 49 53 50 45 45 42 49 42 31 43 49 47 46 42 38 30 104 107 110 114 119 116 112 90 63 31 14 14 17 26 63 64 66 56 14 10 26 21 19 46 96 120 112 110 113 115 119 125 123 116 113 114 120 128 128 132 143 145 145 142 143 150 145 134 130 122 104 82 76 55 43 30 24 34 43 40 52 59 52 56 49 46 52 55 49 33 37 32 35 42 38 38 30 30 31 27 106 111 115 119 121 121 118 87 65 34 19 19 17 23 58 66 67 59 17 13 9 18 27 57 107 129 117 115 118 126 131 128 121 119 115 121 121 126 130 133 143 144 142 145 146 149 143 137 131 115 98 80 73 57 48 35 39 53 44 46 60 57 56 52 42 44 50 50 46 36 40 36 45 41 35 34 25 26 19 19 109 113 116 120 123 123 119 89 47 25 15 20 17 22 51 64 69 59 25 38 51 80 84 70 112 123 113 118 125 131 130 122 117 117 115 121 118 122 125 127 136 141 146 150 148 149 146 141 124 108 96 83 68 56 47 35 42 53 52 69 66 62 59 57 53 46 56 59 57 53 43 40 41 34 30 31 26 25 24 16 110 111 111 115 123 125 121 96 38 17 20 20 19 15 44 63 70 61 34 69 163 193 110 74 109 113 113 122 126 128 125 118 116 114 113 115 114 117 118 124 132 141 151 152 154 156 145 133 114 101 93 79 58 54 50 34 40 53 70 79 66 63 64 61 58 59 66 68 69 56 45 38 36 33 31 38 36 31 24 18 111 111 109 117 128 133 130 110 56 17 16 21 19 13 39 65 65 66 45 49 172 189 78 81 100 105 113 119 122 123 119 115 115 114 113 110 111 107 109 125 133 139 147 151 158 154 133 122 107 98 91 75 60 56 49 37 43 61 76 77 63 67 62 57 56 64 64 67 69 59 56 52 48 49 42 42 46 41 27 25 116 119 121 129 136 140 137 120 80 30 19 17 15 15 41 68 59 64 59 45 117 134 60 79 89 93 104 111 116 114 105 107 110 111 110 106 104 104 108 118 123 122 133 146 148 132 123 114 105 93 85 73 52 44 38 47 54 63 81 75 55 46 47 54 59 61 62 63 64 66 67 64 64 66 56 54 55 48 29 23 119 125 128 134 140 144 139 120 79 38 25 16 14 19 41 74 67 58 64 59 77 100 55 79 84 89 95 105 108 104 102 105 110 109 104 97 95 98 101 99 78 62 66 92 114 114 114 107 97 82 76 65 53 48 38 41 48 66 73 64 45 30 32 44 55 59 64 63 64 70 72 74 80 76 67 66 63 50 36 27 118 120 125 133 145 149 145 116 73 38 29 19 13 18 36 75 79 61 60 69 54 61 49 84 91 86 89 99 97 94 96 103 103 101 95 88 86 89 87 57 23 14 14 26 57 93 104 95 89 74 72 60 53 49 42 38 44 64 75 58 44 29 31 41 48 56 64 67 69 73 79 78 79 75 71 72 67 60 47 35 116 118 125 135 147 151 145 133 88 41 32 20 19 22 37 74 87 77 60 64 59 33 42 90 95 79 81 88 85 85 91 92 87 85 82 76 77 81 61 20 10 16 25 31 33 55 84 83 79 73 67 57 45 38 39 42 46 66 72 57 46 33 35 37 43 55 64 68 70 72 79 77 78 80 80 79 71 64 48 38 118 124 130 134 145 148 142 143 121 70 37 26 26 24 39 71 87 89 77 65 72 42 38 88 94 76 79 74 71 78 85 80 77 75 70 64 67 65 30 11 21 35 50 63 67 55 58 74 72 66 60 55 43 37 36 42 49 64 64 55 48 32 35 38 44 54 66 72 74 72 77 82 83 86 83 79 73 62 53 51 120 125 127 130 133 140 142 147 138 100 59 43 28 18 34 61 82 90 93 85 75 68 52 84 89 71 63 59 65 72 74 72 69 64 58 53 52 40 16 24 39 50 64 78 96 95 64 63 71 64 59 50 38 35 36 47 65 73 63 48 48 36 41 45 46 52 65 71 71 72 79 85 88 85 81 81 75 63 53 47 118 121 123 127 128 139 145 146 136 111 76 52 34 20 30 52 74 84 92 102 91 77 70 77 74 59 52 54 61 63 66 64 59 53 47 40 33 23 23 36 50 61 71 75 100 122 91 60 66 63 56 46 42 40 36 57 80 83 70 57 51 41 45 46 50 56 65 69 67 70 81 88 85 81 78 82 79 76 57 43 118 119 125 126 132 140 148 154 141 123 108 79 46 29 29 47 63 75 80 90 93 83 77 69 58 52 52 52 57 58 55 53 47 40 34 28 27 25 32 43 54 64 73 70 108 132 98 59 56 55 46 41 36 33 41 70 84 83 72 66 55 46 53 54 56 61 65 71 66 70 83 87 86 85 83 85 83 78 59 47 117 120 125 127 141 139 144 159 148 126 117 99 70 47 37 47 59 64 67 69 70 69 74 62 51 46 45 48 50 45 42 40 35 29 26 27 29 28 30 37 46 55 66 65 90 114 93 62 50 43 32 34 28 40 66 77 79 78 69 66 59 51 65 66 65 68 69 73 68 68 80 86 90 88 84 79 80 83 74 63 117 122 125 130 139 141 150 157 155 137 114 93 71 67 65 65 68 63 56 52 50 48 47 41 38 36 38 39 38 35 34 32 28 26 26 27 27 25 27 32 38 47 57 58 56 77 89 71 49 32 28 29 34 44 67 79 83 79 70 69 61 53 58 66 74 72 75 72 64 60 74 80 81 80 80 76 85 94 88 71 122 123 123 126 131 147 164 171 171 158 126 99 94 93 95 87 77 64 53 45 42 37 32 29 28 29 29 28 26 26 27 28 28 27 27 27 28 29 30 32 36 42 51 57 48 47 81 84 59 44 48 52 45 43 71 86 93 83 72 71 63 55 65 74 82 83 77 71 56 48 64 79 82 72 74 76 88 92 71 50 125 124 125 127 136 150 159 184 182 173 151 128 117 109 104 91 79 70 60 47 40 34 30 26 24 24 24 27 30 30 31 31 29 28 29 32 35 36 34 34 39 48 58 64 59 44 74 94 75 63 64 70 50 44 71 88 96 87 74 69 59 58 75 86 89 91 81 72 45 28 47 70 75 73 77 80 92 94 72 57 127 129 124 129 138 147 162 185 195 197 174 149 133 122 110 96 86 80 69 56 45 38 35 31 30 33 39 43 42 41 39 36 34 34 36 41 43 42 40 43 53 66 76 76 71 57 72 102 90 61 55 65 48 59 85 96 102 97 82 72 58 55 71 84 98 100 85 73 42 17 38 58 58 67 70 84 96 90 86 86 130 129 125 127 134 144 157 191 209 218 197 152 134 132 121 107 105 95 82 69 61 54 49 46 48 55 56 58 56 51 50 47 44 44 47 51 53 52 54 61 74 91 97 93 83 70 62 92 101 72 58 58 48 58 82 101 113 104 86 76 63 57 69 90 121 120 97 75 39 16 31 37 39 64 72 87 94 96 110 117 133 129 127 126 132 146 153 178 201 219 208 156 127 130 126 121 117 112 100 87 79 74 68 66 75 79 78 81 74 65 61 57 55 56 57 62 65 64 69 77 94 114 118 117 106 90 62 64 86 88 86 73 56 70 64 84 116 115 88 78 73 58 68 90 117 121 102 72 38 15 23 37 48 76 94 87 100 117 124 119 132 129 125 122 127 145 150 167 183 193 189 170 140 134 136 134 128 126 116 107 98 94 88 89 97 95 97 99 87 77 71 71 72 72 74 80 80 80 85 93 109 132 142 142 129 111 84 52 62 91 105 93 77 65 57 73 106 131 101 83 79 62 67 81 89 101 94 71 39 18 33 54 55 75 98 102 106 123 106 83 129 128 121 121 126 138 149 167 185 196 207 183 150 139 140 139 142 135 129 123 114 109 105 109 109 104 107 107 98 88 85 86 89 89 90 91 94 97 101 109 124 146 171 160 142 123 100 73 69 93 112 112 100 71 59 67 99 132 108 86 81 68 71 85 99 107 95 72 42 29 41 51 60 75 91 105 99 116 100 77 129 122 117 120 129 137 144 165 207 220 214 179 155 148 146 139 147 148 142 139 129 121 119 118 113 111 113 112 102 97 96 94 98 100 99 102 106 106 109 116 130 161 205 180 146 126 106 86 84 99 110 103 87 70 55 73 116 125 98 87 79 69 71 85 96 109 97 75 47 34 46 56 66 72 92 102 106 107 86 92 121 117 113 115 121 129 141 165 199 213 197 171 159 159 152 145 145 149 147 144 136 127 124 120 114 112 112 110 105 104 100 98 103 103 107 108 109 108 110 118 129 173 226 190 149 130 107 86 88 102 102 84 62 49 54 95 134 121 91 82 71 63 76 106 142 151 102 79 49 27 45 61 65 76 97 101 98 93 79 85 114 114 110 111 119 130 141 157 181 187 176 165 156 158 152 143 140 141 141 140 130 122 118 118 118 117 117 114 108 107 99 98 100 102 106 107 111 112 109 116 129 177 228 186 148 130 104 89 101 96 81 70 49 43 65 111 136 114 91 81 61 55 73 98 137 143 104 83 55 27 51 72 72 85 100 106 97 106 105 102 113 106 106 113 122 134 146 162 189 187 172 165 152 148 136 131 127 129 131 130 121 112 109 107 111 114 118 115 109 106 100 95 94 97 100 105 105 108 106 111 127 153 174 160 139 122 102 105 114 81 48 44 34 31 58 113 134 107 87 82 63 56 72 92 129 129 101 87 61 32 52 75 80 96 105 105 105 118 124 106 113 103 105 115 124 140 161 176 199 198 181 168 157 142 124 124 117 119 121 117 109 101 100 97 96 97 103 107 106 102 99 95 92 89 90 99 103 102 103 109 123 134 141 139 125 112 103 117 109 71 59 59 48 51 59 104 123 103 86 83 70 58 65 80 129 115 95 90 71 52 66 81 89 102 104 102 104 109 102 82 113 104 107 115 128 144 170 178 197 183 172 164 154 134 110 114 113 113 114 107 99 94 91 86 85 85 85 88 92 94 92 89 86 83 80 87 97 98 100 106 115 123 126 123 116 102 104 119 97 66 56 58 53 54 52 87 117 109 87 81 71 63 65 82 118 102 89 92 80 60 73 93 101 105 104 104 110 115 83 71 110 108 108 117 135 148 164 181 207 185 164 150 134 106 88 91 100 105 104 98 95 92 87 83 83 85 86 87 89 91 91 86 79 76 73 75 87 94 97 103 111 116 117 119 113 96 117 119 91 64 44 44 45 45 44 70 110 111 91 79 72 63 67 82 93 85 90 94 82 69 85 101 108 111 107 106 114 108 84 71 113 113 108 128 144 151 174 202 208 186 161 139 109 71 58 66 81 95 97 96 96 95 96 92 89 88 89 95 99 101 101 98 86 74 71 73 77 84 92 98 107 111 113 116 106 111 127 104 83 69 50 40 46 46 52 67 102 112 99 80 70 61 66 79 77 78 88 95 86 79 92 106 113 117 120 117 104 96 84 69 115 117 122 141 152 169 198 207 208 187 152 124 87 48 32 48 80 97 100 105 110 107 115 109 101 94 93 97 100 103 105 107 99 87 76 74 73 73 80 87 98 105 111 109 104 135 125 91 85 71 63 42 45 51 38 55 96 120 103 76 68 61 64 66 69 79 89 98 93 87 95 106 111 119 120 122 107 89 96 87 112 125 136 153 168 187 210 203 199 175 145 104 69 33 25 52 88 101 102 117 121 104 109 109 106 98 95 99 103 106 106 107 104 102 94 86 78 70 67 76 92 104 114 105 91 127 115 95 94 83 72 56 50 42 51 66 97 118 106 74 63 60 65 65 70 80 89 104 103 94 96 103 111 121 116 118 109 95 104 94 118 136 146 162 186 206 220 205 189 163 137 94 51 21 21 60 98 103 103 109 104 95 93 106 109 98 97 99 107 115 117 117 114 111 105 101 98 92 75 74 92 107 118 106 85 104 103 107 106 91 81 75 57 45 56 61 75 104 111 78 62 65 65 68 77 83 93 106 106 97 98 106 112 114 112 111 103 94 84 72 130 141 147 166 193 214 220 207 183 153 122 86 36 13 19 71 101 100 97 88 89 82 64 100 105 93 96 101 112 123 131 133 124 118 113 113 115 121 113 92 90 104 115 112 100 102 116 118 113 103 96 89 73 65 60 56 65 94 111 87 63 58 63 69 77 85 100 107 108 101 97 101 107 108 115 105 93 77 73 71 138 147 159 174 189 212 210 206 180 140 115 69 25 9 22 81 101 92 78 71 80 58 49 86 98 89 99 105 113 123 134 141 137 127 120 121 122 128 142 143 119 102 106 107 109 125 134 126 120 114 105 95 85 74 67 57 59 90 108 94 64 55 59 61 74 88 105 107 107 101 95 101 102 99 108 100 89 80 59 62 145 154 171 179 189 208 215 203 171 126 101 46 15 8 30 85 94 73 54 64 65 52 44 72 87 85 96 103 113 124 130 140 144 137 128 125 126 134 146 162 170 167 150 142 150 153 147 137 128 118 113 101 95 75 66 51 59 89 113 103 73 51 51 55 73 94 109 107 99 96 96 94 90 89 91 80 78 71 52 45 144 157 169 180 194 206 209 199 164 115 69 29 12 10 40 87 82 54 42 50 54 72 43 68 81 83 94 107 119 128 131 136 140 141 136 132 133 140 151 160 175 197 188 182 180 169 157 147 135 123 121 107 92 79 63 47 42 64 94 100 77 57 53 60 78 95 108 102 92 94 91 76 65 70 84 62 55 60 62 40 143 158 170 183 193 211 210 197 160 110 45 21 15 10 41 83 71 47 41 32 69 102 51 64 79 87 95 111 119 129 137 137 140 145 146 143 140 144 157 165 172 184 182 190 188 180 166 156 146 136 129 114 87 78 60 37 43 57 71 87 74 64 61 79 86 90 97 97 94 90 81 66 56 63 73 61 47 55 67 56 134 155 170 181 191 213 210 195 148 92 32 16 9 8 42 79 59 44 36 34 108 137 67 59 79 92 99 117 123 128 142 146 145 145 149 149 145 147 153 165 170 175 173 180 190 185 170 164 154 144 133 116 89 73 69 61 67 70 61 76 72 58 69 84 84 87 87 92 98 82 73 72 73 72 64 66 59 68 79 66 130 150 167 180 192 212 215 182 132 74 38 15 11 7 38 73 52 36 24 51 136 154 95 54 76 98 107 129 138 140 145 149 145 142 145 149 148 150 151 163 170 170 174 175 181 177 165 172 159 149 139 117 100 85 69 65 73 90 79 76 72 63 75 72 77 82 83 77 82 81 75 74 72 72 73 73 77 86 79 77 127 144 159 171 186 206 210 173 118 71 42 13 17 12 37 70 46 34 19 45 66 76 79 49 78 103 113 132 152 151 151 150 149 147 148 148 147 150 155 158 169 175 178 177 184 184 172 167 162 155 144 119 101 86 61 49 43 66 83 79 76 65 68 60 63 73 78 68 73 81 74 62 52 58 77 81 91 84 78 73 125 140 151 165 181 197 191 162 125 69 32 16 14 15 45 68 46 39 19 13 12 18 26 44 84 101 114 128 163 161 158 153 156 152 147 145 149 148 156 161 171 178 186 182 181 188 183 169 163 163 151 131 113 92 69 59 44 40 61 74 72 72 71 74 61 64 67 69 73 82 80 66 66 67 78 82 89 86 83 71 127 139 149 160 178 198 182 155 110 59 23 13 10 18 56 66 41 41 20 8 9 13 18 35 76 104 118 120 154 168 163 161 158 146 144 142 151 153 154 164 171 176 183 178 179 183 182 178 171 164 155 138 123 93 74 70 57 43 44 67 70 73 72 81 74 70 66 70 76 78 77 87 96 89 87 84 87 85 76 69 129 137 144 154 167 192 181 146 96 57 21 16 11 17 57 58 35 34 18 7 5 5 12 26 70 114 125 114 134 160 171 171 163 147 145 146 151 157 153 163 166 176 181 181 184 183 182 175 171 166 155 140 127 112 81 64 50 48 42 64 78 79 79 69 74 82 80 79 79 83 87 98 96 103 103 94 85 77 69 66 125 134 142 146 154 171 172 141 99 51 16 15 14 15 49 52 31 27 16 8 18 22 8 27 68 122 120 115 125 149 168 171 169 162 154 149 153 158 162 164 161 175 178 186 185 184 184 175 173 169 157 143 133 125 100 73 59 56 59 67 84 87 81 81 89 102 100 98 98 101 103 109 101 95 94 89 81 74 72 67 120 128 136 139 142 158 159 130 96 42 19 15 17 21 55 54 32 25 25 8 73 106 5 24 63 115 117 115 121 138 157 167 173 171 157 149 153 155 162 167 170 174 174 181 183 184 182 177 174 167 156 145 138 130 124 107 92 79 83 84 99 114 113 118 133 127 119 117 110 111 112 109 104 99 91 85 82 76 71 67 120 128 132 133 138 148 148 121 89 43 18 17 15 23 65 59 35 30 17 11 20 24 11 18 49 89 109 112 116 130 146 156 168 167 159 152 154 155 157 165 170 171 175 182 182 182 179 174 169 162 157 149 145 141 136 131 128 117 105 113 125 133 137 136 135 125 125 127 123 114 107 104 107 102 94 87 81 74 68 66 117 124 129 130 134 140 134 119 82 40 14 18 14 21 68 65 40 38 17 13 9 11 15 34 57 84 100 109 113 123 137 141 153 164 162 154 152 159 158 160 165 169 174 179 181 183 176 167 167 163 156 152 146 142 136 134 134 136 136 134 128 130 132 127 124 117 123 123 122 112 108 104 103 100 89 87 78 71 68 63 112 121 126 127 128 130 127 108 73 33 14 19 13 27 71 61 41 38 22 18 13 16 37 106 74 75 92 104 110 124 135 137 148 164 163 159 152 156 162 162 160 163 166 169 176 178 174 167 165 161 149 141 141 133 132 135 134 130 136 134 128 125 124 119 113 108 116 118 116 110 109 102 98 93 85 79 74 73 64 62 112 121 122 123 125 123 122 99 70 32 13 16 14 36 81 64 41 35 20 55 74 76 129 164 73 76 90 97 107 121 131 142 151 159 160 164 164 162 165 164 162 161 160 161 164 168 169 165 161 157 151 144 142 135 130 133 132 127 127 128 126 121 118 116 117 112 114 117 110 102 95 95 90 87 82 76 74 69 62 65 112 114 117 120 122 122 120 94 66 30 20 16 20 37 83 74 40 35 26 57 144 167 183 147 62 77 88 95 103 118 128 141 148 153 155 159 163 165 160 161 162 161 158 156 161 164 159 155 152 150 153 153 148 140 129 128 127 128 126 124 122 121 119 117 116 114 113 108 90 72 87 95 91 89 80 74 70 61 59 59 110 111 113 118 118 118 116 95 60 33 20 15 26 42 80 80 49 38 40 31 93 161 161 106 48 67 80 89 100 115 127 136 141 148 154 156 159 149 153 161 162 162 157 155 157 157 152 149 147 143 149 150 143 139 131 129 123 121 121 121 123 120 118 113 113 112 110 102 85 79 93 93 89 88 79 71 64 57 54 52 108 109 115 116 116 115 110 97 59 32 16 18 23 46 80 85 59 41 48 34 28 93 112 69 41 61 73 87 101 114 127 130 134 146 157 160 161 151 157 160 158 157 156 155 153 152 148 148 150 145 146 147 144 133 130 132 127 122 125 123 120 118 120 118 113 113 112 105 102 98 95 91 85 79 71 65 59 55 51 50 104 104 107 111 113 110 103 94 60 36 23 24 20 42 77 89 72 46 45 43 18 34 74 52 38 52 69 90 104 116 127 126 131 143 149 157 160 165 165 160 159 155 153 153 150 146 143 148 150 144 140 138 138 136 132 132 132 134 133 126 120 119 117 115 112 111 111 107 105 101 94 90 83 71 63 59 54 49 47 58 101 101 102 106 105 106 101 85 62 31 19 22 20 35 72 89 81 58 41 44 28 12 42 41 36 51 71 95 107 117 127 132 131 136 145 148 157 161 164 162 157 154 155 153 150 144 139 140 142 138 131 130 135 137 136 131 132 136 130 125 123 119 119 115 111 106 108 105 105 100 92 85 76 65 58 53 47 49 60 71 94 94 96 101 97 100 97 83 55 31 13 17 21 37 62 88 88 74 51 44 36 17 20 34 36 59 82 99 108 119 127 133 133 136 145 148 155 158 158 152 149 150 153 152 147 140 140 139 132 122 131 130 130 132 131 131 133 130 125 124 128 126 119 116 109 104 107 108 99 95 86 76 67 60 51 46 51 63 71 76 92 85 90 95 90 93 91 81 58 36 13 11 17 34 57 80 88 79 67 55 49 36 24 38 52 68 92 103 110 117 123 126 133 138 145 148 151 156 153 147 147 144 148 147 139 137 137 137 128 127 132 129 127 128 127 127 128 133 129 125 126 123 119 118 111 110 105 100 91 89 77 66 57 45 43 53 62 69 73 72 86 81 82 89 84 85 84 76 63 38 16 13 15 25 55 65 82 80 76 70 65 62 47 48 70 81 101 110 112 119 120 125 130 135 145 149 150 153 149 144 144 142 140 137 136 132 129 127 124 134 135 126 124 127 132 127 126 131 129 123 116 115 113 111 106 102 95 88 82 74 60 54 49 47 52 63 70 72 69 65 79 77 74 77 78 76 78 74 66 48 19 9 16 12 38 58 80 81 80 78 75 76 67 72 88 94 110 119 121 122 123 125 127 130 135 142 149 149 146 140 134 135 133 132 128 122 121 123 126 130 130 126 126 125 127 122 124 124 119 113 109 108 102 100 92 87 81 77 72 60 51 48 52 58 63 67 66 63 58 51 71 68 72 72 74 72 73 72 66 58 28 12 24 12 29 52 76 80 82 84 84 81 84 97 111 113 120 130 129 126 122 124 124 125 129 134 136 136 135 131 130 125 125 126 123 121 118 120 123 124 122 124 123 121 118 115 116 112 111 107 99 96 94 89 82 77 71 64 56 51 51 54 54 55 55 52 45 40 34 26 58 59 63 68 70 68 64 66 67 59 39 16 20 16 24 42 71 75 77 84 90 92 102 112 124 134 135 138 137 131 123 122 125 125 129 132 132 134 132 130 128 125 124 122 123 122 119 117 115 117 114 114 112 106 106 105 103 103 101 97 89 84 83 79 72 65 54 45 41 38 32 27 25 30 34 32 37 37 31 19 46 48 51 63 67 64 60 58 63 63 56 31 11 12 16 33 61 71 74 80 88 98 108 118 130 139 140 136 136 133 125 122 119 120 123 125 128 130 127 125 121 117 122 123 121 119 114 111 109 111 108 105 100 96 94 91 91 90 86 82 77 73 70 63 55 41 25 16 14 11 9 7 7 19 34 38 43 40 33 15