P2
80 80
255
113 99 100 125 119 105 99 70 72 79 134 213 215 215 202 205 199 187 168 177 169 140 113 95 87 85 73 65 67 63 67 83 86 87 103 127 161 168 198 232 198 213 227 237 224 202 201 232 217 214 236 227 231 236 214 214 217 212 210 215 214 208 199 178 175 173 176 171 162 157 143 130 122 118 118 117 116 116 116 116 115 104 101 116 101 93 72 49 72 102 165 236 249 231 213 208 186 155 151 159 154 138 116 104 96 93 76 69 63 57 63 78 84 90 103 120 129 141 151 195 196 211 206 206 207 204 213 225 211 210 224 219 214 225 219 217 223 209 210 215 223 211 204 201 190 190 185 177 187 179 166 161 150 128 120 118 117 117 117 117 109 104 98 94 96 79 43 45 87 132 203 210 221 228 218 179 144 116 122 131 133 129 120 121 122 115 91 86 69 58 57 62 74 86 100 104 118 137 129 166 194 206 218 192 209 228 211 199 190 204 212 217 214 216 196 194 204 202 212 208 211 209 209 216 220 208 195 186 177 175 175 173 176 161 135 120 116 115 117 115 94 89 84 80 78 51 34 57 93 154 195 178 184 192 170 104 72 76 120 112 108 105 122 134 137 130 108 97 81 64 62 67 70 79 94 102 108 130 122 136 170 172 225 204 221 235 220 209 197 195 195 216 223 206 200 208 210 205 179 189 196 206 203 201 212 222 211 200 184 179 180 176 179 170 168 147 124 121 124 122 76 75 71 66 53 28 35 57 84 138 158 153 154 145 95 59 80 125 97 92 92 100 121 145 147 131 117 103 92 74 64 68 71 74 82 100 103 125 115 125 145 143 189 216 220 214 226 243 222 204 181 204 195 193 205 217 217 213 196 189 187 194 203 214 207 213 211 209 195 192 186 189 184 184 184 186 156 150 153 155 68 66 67 58 31 19 33 50 77 110 126 126 127 102 63 107 160 94 58 84 81 109 133 163 167 131 110 91 90 75 66 54 63 65 65 74 80 90 107 102 113 129 155 164 184 201 226 219 222 208 182 203 194 185 189 199 202 204 217 207 188 203 205 205 192 191 200 208 208 202 193 193 196 194 195 203 185 157 159 179 58 60 55 40 23 23 31 42 74 97 97 111 113 70 78 161 121 39 67 59 46 90 151 212 194 149 111 88 84 74 66 57 60 67 64 59 69 82 83 77 87 116 130 126 138 138 189 198 191 191 193 196 187 190 171 193 190 187 220 207 197 194 195 187 191 197 194 211 209 206 202 185 193 194 205 201 186 170 161 172 54 55 48 26 22 25 28 36 54 71 82 79 78 56 87 116 51 78 163 111 32 54 136 225 217 165 115 87 73 70 65 59 59 56 61 57 55 69 77 69 66 83 102 118 120 115 137 156 176 198 197 193 200 189 182 196 186 193 202 212 227 195 195 205 206 200 198 197 190 198 196 188 187 186 190 190 190 187 167 160 54 50 39 24 22 20 30 29 39 51 57 61 55 47 69 55 107 151 198 207 85 34 101 180 192 156 106 78 64 62 54 41 43 43 47 49 53 53 63 63 72 76 84 101 112 116 110 117 133 168 186 178 175 183 184 182 177 188 195 195 216 212 196 189 184 201 203 201 209 207 193 188 186 181 173 179 190 192 183 172 50 45 33 24 17 19 21 23 36 45 50 56 47 38 47 36 108 149 196 255 211 52 60 124 147 132 91 61 50 47 45 38 32 35 39 40 49 43 50 56 58 69 72 82 102 117 113 107 106 136 150 163 148 183 178 166 182 202 197 173 176 179 179 173 180 212 194 207 223 220 208 198 181 176 180 178 187 189 191 185 46 41 32 23 17 17 13 15 27 32 39 47 37 31 26 33 95 135 173 231 191 43 38 83 107 103 85 58 44 40 46 37 31 24 24 29 36 35 37 43 51 62 66 77 91 104 100 105 108 129 134 117 114 136 163 154 158 181 182 175 177 176 187 199 206 208 195 203 209 207 214 213 197 186 184 175 176 189 185 180 42 36 27 21 15 12 9 10 17 26 32 38 26 24 17 32 67 86 118 146 127 38 25 60 85 85 74 49 38 31 27 29 23 20 19 27 26 32 32 35 42 48 57 63 76 94 113 120 112 116 112 110 110 111 142 140 124 139 169 172 175 182 189 201 213 205 214 209 208 200 207 222 200 196 193 182 169 169 181 181 44 38 26 16 10 8 9 8 17 21 26 33 19 15 11 14 13 15 39 83 98 37 15 34 54 63 55 37 28 24 21 24 23 22 20 20 19 25 31 35 41 41 50 55 74 86 91 94 101 105 112 106 118 129 142 140 134 158 173 173 175 185 188 208 227 224 227 225 218 206 215 219 207 201 199 194 179 168 169 175 39 33 23 16 10 7 6 6 17 16 16 25 12 8 5 2 2 4 4 26 60 30 11 23 39 44 38 27 20 19 17 15 16 18 15 14 17 22 28 29 36 37 45 49 61 62 61 65 76 96 107 94 106 135 142 133 151 153 168 178 178 184 181 182 196 207 220 203 189 183 194 201 209 210 209 192 185 186 178 182 38 26 19 15 9 5 4 5 12 16 18 22 8 5 3 2 3 3 3 6 24 19 8 17 29 31 26 18 16 17 14 13 13 17 18 21 28 31 29 28 28 29 34 30 32 44 50 56 68 87 97 91 80 110 123 118 133 132 144 157 147 148 143 140 155 190 195 171 149 152 170 177 190 200 194 183 171 169 182 205 39 30 19 14 9 4 4 5 12 16 15 16 6 6 3 2 3 1 2 3 8 11 7 11 17 21 16 13 14 14 14 12 12 18 19 22 30 25 18 21 24 30 41 38 27 33 40 57 53 67 72 67 74 83 84 96 102 109 121 131 124 122 138 156 179 190 160 141 129 133 145 160 159 167 178 183 172 164 155 182 39 33 20 15 8 3 3 5 11 12 11 10 7 7 3 2 2 3 3 3 5 9 7 8 10 12 11 9 11 11 14 11 12 13 14 19 27 19 14 18 22 25 39 47 39 35 36 47 48 42 57 62 51 59 66 79 92 99 111 124 129 119 132 156 161 142 117 107 104 108 124 148 145 156 171 188 182 167 156 157 35 32 24 15 8 4 3 6 11 13 10 7 6 6 3 5 7 8 6 5 9 10 7 8 8 8 9 8 9 9 9 11 15 14 16 14 13 16 18 20 17 13 14 23 30 30 30 28 34 33 35 35 30 50 71 81 89 101 115 112 118 117 119 131 140 121 95 107 115 115 110 136 153 150 162 177 178 163 155 156 37 35 25 14 8 5 4 6 11 13 10 7 5 7 3 6 9 10 6 8 16 11 7 8 8 7 7 8 8 8 9 12 18 17 18 12 11 13 14 12 11 10 10 16 24 28 30 33 25 23 20 29 42 54 65 77 93 108 102 103 107 125 131 136 148 109 82 95 108 110 111 118 129 135 151 159 164 161 156 149 33 41 29 14 9 4 3 6 14 15 9 8 5 6 5 8 8 6 7 14 19 10 7 8 8 7 7 8 7 8 8 11 15 17 14 11 10 10 11 10 11 11 13 15 22 31 24 20 20 22 29 36 43 51 63 72 92 99 95 94 100 128 143 155 139 84 51 38 59 100 119 118 113 120 125 132 147 151 150 133 24 31 29 14 7 4 4 6 15 19 11 7 5 5 6 13 14 14 20 23 19 8 8 9 7 6 6 7 7 8 9 13 18 20 14 17 12 11 16 13 14 14 18 15 13 17 15 12 16 25 32 37 43 53 68 71 79 82 91 98 104 125 147 168 135 72 29 7 25 86 125 127 118 106 112 106 116 138 136 144 19 24 24 13 9 6 7 8 16 28 13 6 5 5 6 12 22 25 26 23 15 7 8 7 6 6 7 7 6 8 11 18 25 29 24 33 31 21 25 22 22 17 21 16 11 12 13 14 16 26 32 39 45 48 56 64 61 64 75 87 106 125 135 174 140 71 25 4 10 57 118 124 119 110 106 106 108 116 117 131 16 19 18 13 10 7 7 13 18 33 16 7 6 5 6 8 15 19 21 20 11 7 8 6 5 6 6 7 7 10 18 27 33 32 27 24 39 43 43 42 42 34 33 21 12 14 16 19 23 26 30 39 42 40 43 49 53 62 67 73 85 98 122 162 111 56 24 3 6 37 110 137 126 114 98 98 94 102 108 108 18 17 16 13 10 8 8 16 23 36 19 7 6 5 6 5 7 12 15 14 8 6 6 5 5 5 6 6 10 24 32 38 53 38 21 30 41 60 65 65 71 65 53 41 41 68 92 82 42 23 27 33 41 41 41 44 46 57 61 62 65 78 104 124 72 43 33 24 27 40 83 139 139 116 100 102 95 87 91 99 17 20 18 14 11 8 11 19 22 34 21 7 7 4 4 6 5 7 10 10 6 4 6 5 5 5 5 7 20 37 44 46 71 85 57 64 70 82 89 88 108 115 95 70 87 138 218 214 136 42 18 28 36 40 41 43 45 48 54 56 54 67 100 83 48 41 54 62 50 57 61 118 145 120 103 98 89 74 82 82 13 14 14 16 15 10 10 17 24 33 19 9 8 5 3 5 6 5 7 6 4 4 5 5 5 5 5 16 40 50 58 69 91 108 108 111 108 109 124 131 145 126 78 58 78 150 242 184 138 84 25 22 30 39 38 40 40 37 45 56 53 66 97 60 45 47 55 50 49 73 69 93 133 112 101 84 68 67 67 63 11 14 13 14 14 13 13 16 30 33 19 13 8 6 4 4 5 4 3 3 3 4 4 5 5 5 12 41 63 75 83 97 107 114 128 132 130 130 132 119 87 50 32 42 71 155 207 111 67 74 43 19 26 36 41 42 38 37 42 48 48 69 76 62 54 46 57 46 37 68 88 82 108 108 92 85 72 57 46 51 11 11 11 12 12 13 13 19 35 35 20 18 8 6 5 4 4 4 3 4 2 3 4 4 5 10 41 66 83 97 103 114 113 130 147 147 127 129 124 87 45 22 22 44 87 187 191 75 24 44 49 23 28 38 37 36 34 34 39 39 41 64 68 78 68 39 27 26 33 58 92 90 85 100 85 69 57 46 44 43 9 10 11 11 12 12 16 26 38 34 26 34 11 7 7 4 4 4 3 3 2 3 4 4 6 35 77 71 89 108 120 123 117 131 136 129 128 142 142 90 38 18 37 76 144 236 179 67 9 24 49 39 35 39 41 36 34 27 30 36 39 54 63 65 50 33 16 15 23 51 100 113 90 90 86 62 43 36 38 37 9 10 10 10 11 13 17 28 36 27 42 67 21 8 7 6 5 4 3 3 4 4 3 6 30 68 89 89 105 112 129 123 123 115 120 115 126 149 176 130 58 47 76 119 217 255 183 89 9 24 82 79 53 54 54 43 38 36 34 34 40 56 64 58 35 21 10 10 21 41 81 114 94 76 73 57 33 20 24 29 10 10 11 11 11 12 16 24 27 24 55 83 52 13 6 6 5 5 4 3 4 3 5 34 80 97 97 101 112 117 132 128 121 117 112 105 108 116 133 128 88 80 85 121 242 255 189 119 26 49 155 148 90 65 62 42 33 39 37 29 34 51 57 56 41 20 7 8 13 21 34 63 75 59 54 46 28 17 16 20 12 11 11 11 11 12 15 18 19 25 62 101 113 69 21 7 4 4 3 2 2 10 46 90 113 125 126 126 118 121 128 127 120 110 96 86 86 83 79 77 68 64 70 100 220 255 199 146 72 73 149 150 110 78 61 39 31 28 33 31 35 42 45 41 37 21 5 7 8 12 17 27 36 42 44 40 28 18 12 15 11 11 12 11 11 12 12 13 14 28 62 103 146 166 131 73 22 8 10 20 40 69 90 83 104 122 116 119 108 106 105 105 98 89 76 63 59 57 54 49 43 43 51 69 138 219 182 146 118 118 141 108 83 72 51 33 30 19 19 27 34 41 43 31 33 22 3 6 8 10 13 16 19 27 32 34 24 12 7 11 11 12 11 11 11 10 11 13 12 27 48 85 137 176 194 175 109 75 84 108 113 92 65 48 65 81 84 86 87 84 79 77 75 70 57 44 38 36 31 27 25 25 29 42 59 92 110 109 108 153 161 92 60 55 36 19 15 12 11 17 28 35 46 40 31 15 3 5 8 10 11 10 9 13 23 29 21 9 6 9 11 11 10 11 11 11 11 12 13 22 34 60 101 133 154 163 145 123 115 109 80 55 35 25 32 42 50 54 55 56 54 51 48 46 39 32 25 23 17 15 15 13 15 21 28 40 59 72 81 119 160 95 57 46 29 15 8 8 8 10 18 23 35 46 45 18 2 5 7 10 11 8 7 6 12 25 17 7 5 7 10 10 10 11 10 11 11 11 12 15 21 38 62 82 97 97 94 84 72 59 35 24 16 13 15 17 22 26 27 29 28 26 24 25 24 18 15 14 13 12 11 11 12 14 15 20 33 47 58 75 134 108 58 41 24 12 8 8 8 8 9 14 24 39 48 26 3 4 7 9 9 8 7 5 7 21 22 11 5 7 10 11 10 10 10 11 10 11 10 10 14 24 34 40 49 43 37 30 30 26 15 12 11 11 11 11 12 12 13 13 13 13 12 12 12 11 10 10 12 11 10 10 11 13 12 12 18 30 41 53 96 103 48 26 11 8 7 8 8 7 7 8 17 25 36 24 3 4 7 8 9 8 6 6 5 20 24 10 4 7 10 11 11 10 11 11 10 11 11 11 11 12 16 16 18 15 15 14 13 12 11 12 11 12 11 11 11 12 11 10 10 11 10 10 10 9 9 10 12 11 12 11 12 13 13 11 12 17 27 40 71 85 37 11 5 5 6 7 7 7 8 6 13 28 40 28 3 2 6 8 8 7 6 6 5 21 24 14 6 6 11 11 12 12 10 11 12 11 10 10 10 11 11 11 11 11 11 12 11 11 13 12 12 12 11 11 12 12 11 11 11 11 10 10 11 10 10 10 11 12 12 13 13 15 15 13 12 12 16 32 63 55 20 8 6 6 7 7 7 7 8 6 8 13 22 24 3 2 6 7 6 6 6 4 5 17 25 16 7 6 11 12 11 12 11 12 12 12 10 9 10 10 10 11 12 12 12 13 13 13 14 13 13 11 11 11 11 11 12 11 13 12 12 12 11 10 11 11 12 11 13 14 15 16 15 14 12 10 10 23 39 21 8 7 6 6 7 7 6 7 8 5 5 5 14 18 2 3 6 7 7 7 6 4 4 15 20 7 4 5 10 10 10 11 10 11 11 10 9 9 9 9 11 12 12 13 14 15 15 14 14 13 13 12 12 13 12 12 13 14 14 13 13 13 12 11 12 12 13 13 13 15 17 16 15 13 11 9 9 13 12 7 6 7 7 7 7 6 6 7 7 6 6 5 15 19 3 2 6 8 7 7 6 5 3 12 18 4 4 5 9 9 10 11 10 10 10 10 8 8 9 9 11 12 12 13 13 15 15 14 14 14 13 13 13 14 14 13 14 14 14 14 13 14 13 12 12 13 13 14 14 16 17 16 15 12 11 9 8 7 6 6 6 6 7 7 7 6 7 7 7 5 5 5 6 6 2 3 5 7 8 8 6 4 3 10 17 5 4 6 10 9 10 10 10 11 10 9 9 8 8 8 10 12 12 11 12 12 12 12 13 13 13 12 14 14 14 15 14 14 15 16 15 13 13 12 12 13 14 15 16 16 15 15 14 12 10 7 6 5 6 7 7 7 8 7 8 8 9 8 7 7 6 5 4 2 1 3 6 7 9 8 7 5 3 11 25 7 4 6 10 10 10 10 11 11 10 9 9 8 7 8 9 10 11 9 10 9 10 10 10 10 12 12 14 14 15 15 15 15 16 16 17 16 14 13 14 15 15 16 17 15 14 14 13 12 9 6 2 4 6 7 8 7 7 8 9 9 10 10 7 6 6 5 4 3 1 3 6 7 9 9 8 5 2 10 28 8 3 6 10 11 11 11 10 10 9 8 8 7 7 7 8 8 8 8 9 8 8 9 8 9 11 11 12 13 13 14 14 14 15 15 17 17 15 14 15 16 17 19 19 17 16 14 13 12 9 6 1 3 5 7 8 8 8 8 9 9 9 9 8 7 6 5 4 3 2 3 7 9 10 9 7 4 2 9 21 7 4 5 10 11 11 10 10 11 9 6 7 7 7 5 7 7 8 8 8 7 7 7 6 7 8 9 9 11 13 13 14 14 13 13 14 15 15 14 14 15 15 16 17 16 16 14 13 12 10 5 0 2 4 6 8 9 7 8 8 8 9 9 8 7 6 5 4 3 2 4 8 12 10 8 5 4 3 8 13 6 5 6 10 11 12 11 10 10 9 7 7 6 6 5 6 6 7 6 6 7 7 8 7 7 7 7 8 10 11 12 13 13 12 13 13 14 14 14 14 13 12 11 11 10 11 13 15 13 10 5 0 2 3 4 6 9 8 8 8 8 9 9 9 7 6 5 4 3 2 3 7 10 9 6 4 3 3 5 7 5 4 6 11 11 11 11 10 8 7 6 7 6 5 5 6 6 6 6 5 6 8 8 8 7 7 7 7 8 9 10 11 11 10 11 13 14 14 14 14 13 12 11 9 7 8 10 14 13 11 6 1 2 2 3 6 9 9 8 9 8 9 10 10 8 6 6 5 3 2 3 7 8 6 5 4 3 3 5 6 5 5 5 12 12 11 12 11 8 5 6 6 5 5 5 5 6 5 5 5 6 6 7 5 5 7 7 8 8 9 9 10 11 11 11 11 12 13 13 13 12 12 11 9 7 8 9 13 15 12 8 3 3 3 4 7 9 9 9 8 8 8 9 10 9 6 5 4 3 3 4 7 8 7 5 5 4 4 5 7 5 5 6 12 13 12 12 10 7 5 6 5 4 4 5 5 5 4 3 4 5 5 5 3 3 5 6 7 8 10 10 10 11 12 11 12 12 12 11 11 11 12 12 10 7 8 11 13 16 14 9 7 5 4 5 8 9 9 8 8 8 9 9 10 10 7 5 3 3 3 3 7 8 5 4 3 4 5 4 5 5 6 6 13 13 12 12 9 6 3 2 2 2 4 5 4 4 3 2 2 3 5 6 4 3 5 5 6 7 8 10 11 11 12 13 12 12 12 12 11 11 12 12 10 9 9 11 14 16 14 11 9 7 6 8 9 10 9 9 9 9 8 8 9 11 9 5 4 3 2 3 5 7 4 4 5 4 5 6 5 5 6 6 14 13 14 12 10 5 2 1 2 2 4 5 5 4 3 2 2 1 3 4 4 3 3 4 5 6 8 9 12 11 12 13 12 12 12 12 13 12 12 12 11 11 9 10 13 15 13 10 9 9 8 10 11 10 10 8 8 9 7 7 9 11 10 7 4 2 2 2 5 6 5 4 5 5 5 5 5 6 6 6 14 13 14 12 10 5 1 1 1 2 3 4 4 3 2 2 2 1 5 6 4 3 3 3 4 5 7 9 10 11 12 13 13 13 12 13 13 13 12 12 12 11 11 10 11 12 11 10 11 11 11 11 10 10 10 9 8 9 9 9 9 11 11 10 6 3 1 2 3 4 5 6 6 6 5 5 6 6 6 6 14 13 13 12 10 4 1 1 1 2 3 4 4 3 1 2 1 3 5 6 4 3 4 3 4 6 7 8 10 10 12 13 13 13 13 13 12 12 12 12 12 12 12 11 11 11 10 11 12 11 11 12 11 10 10 10 10 10 9 9 10 10 11 11 9 4 1 1 2 4 6 7 7 6 6 6 6 6 5 6 14 14 13 11 8 2 1 0 1 1 4 5 4 2 1 2 2 6 7 8 6 3 4 4 4 5 6 7 9 11 12 13 12 13 12 12 12 11 12 12 12 12 12 12 12 12 11 12 12 11 11 11 11 10 11 10 10 11 9 10 10 10 11 12 10 6 2 0 1 5 6 6 6 6 7 7 6 6 6 6 14 13 14 11 8 2 0 0 1 1 3 4 4 2 2 1 6 9 10 10 7 4 4 4 4 5 6 7 8 10 11 12 12 13 12 12 12 12 12 12 12 13 13 12 12 11 11 12 13 12 12 12 11 10 10 12 11 11 10 10 10 10 11 11 9 6 2 1 3 6 7 6 6 6 7 8 6 6 6 7 13 14 13 12 7 1 0 0 1 1 3 4 3 2 2 3 7 8 10 10 10 6 5 5 4 4 6 7 8 9 11 12 13 12 12 12 12 12 13 12 12 13 13 12 12 12 12 12 13 12 11 12 11 11 11 11 11 11 10 9 9 10 11 10 10 8 4 2 4 6 6 6 6 6 7 7 7 6 7 7 14 14 13 12 7 2 0 0 0 2 5 4 3 2 2 3 3 3 4 8 10 8 5 5 4 4 6 7 8 8 9 10 12 12 12 13 13 13 13 12 12 12 12 13 12 12 13 12 13 13 11 10 10 11 12 11 11 11 10 9 9 10 9 9 9 9 7 5 4 6 6 6 6 7 7 7 6 7 7 7 14 14 13 12 8 2 0 0 1 3 5 5 3 2 1 1 0 0 0 2 6 8 5 5 5 5 6 8 8 8 9 10 11 12 13 13 13 14 13 11 13 12 12 13 12 12 12 12 13 13 12 10 9 11 11 11 11 11 10 10 9 10 9 9 10 10 8 6 6 6 7 6 7 7 6 6 6 6 6 6 15 14 13 11 8 2 1 0 1 2 5 5 4 2 1 0 0 1 0 0 3 8 4 5 5 6 7 8 8 8 9 10 10 10 12 13 12 13 12 12 13 13 13 13 12 13 12 13 12 12 12 11 10 10 11 11 12 10 10 12 11 10 9 9 10 9 8 7 6 6 7 6 7 7 7 6 6 5 5 7 14 13 13 11 9 3 1 0 0 2 5 6 4 2 1 0 0 0 0 1 1 6 5 4 5 6 7 9 9 9 9 10 11 11 12 12 13 12 12 12 12 12 13 14 14 12 12 13 13 12 11 11 10 11 11 11 11 11 11 12 12 11 10 9 9 9 9 8 7 6 7 7 7 7 7 6 6 6 6 7 14 14 12 11 9 5 1 0 1 2 6 6 4 3 1 0 1 1 1 1 1 4 7 4 6 6 7 9 10 10 10 11 10 12 12 12 13 13 12 12 13 13 12 13 13 12 12 12 12 12 10 10 11 10 11 12 12 12 11 12 12 11 10 10 9 10 8 8 7 7 7 8 8 7 7 6 6 7 7 7 13 13 12 11 8 7 3 1 1 2 6 7 5 4 2 0 3 5 5 1 1 6 7 6 7 7 8 9 11 11 12 11 10 11 12 13 13 13 12 12 13 11 9 11 12 12 13 13 13 12 11 10 11 10 12 12 12 11 11 12 12 12 10 10 10 10 9 9 9 8 7 8 8 8 8 7 6 7 7 8 13 13 12 11 8 6 4 1 2 3 6 8 6 5 3 1 4 7 5 1 2 10 8 6 7 8 8 10 12 12 12 11 10 11 12 13 13 13 13 13 12 10 10 11 11 11 12 12 12 12 11 10 12 11 12 11 11 11 11 12 12 12 11 11 10 10 10 10 10 10 8 8 8 8 7 7 6 7 7 8 13 13 12 11 7 5 4 2 2 3 6 7 5 5 4 0 4 4 2 1 6 12 8 5 7 8 8 10 11 11 12 11 10 11 11 13 13 14 14 12 13 12 11 11 11 12 12 11 11 12 11 10 12 11 11 12 11 10 11 12 12 12 12 12 11 10 10 9 10 10 9 9 9 8 7 7 7 8 8 8 13 13 13 11 8 5 4 3 2 3 5 7 6 4 5 1 1 3 4 8 13 14 8 6 7 8 9 10 12 12 12 12 12 12 12 12 12 12 13 10 11 12 12 13 11 12 12 11 11 12 11 10 11 12 11 11 11 10 11 12 11 11 12 11 11 11 10 10 10 11 9 9 9 8 8 8 7 7 7 7 13 13 13 11 8 5 4 4 2 3 7 7 7 4 5 2 4 11 14 15 15 13 6 7 8 8 10 11 12 12 13 13 12 12 12 12 12 13 11 10 10 11 13 13 12 12 12 11 11 12 11 11 11 11 11 11 11 10 10 11 10 10 10 10 10 10 9 9 9 9 9 9 8 8 8 8 6 7 7 6 13 13 12 11 7 4 4 4 2 3 7 8 8 5 5 4 3 13 17 16 15 11 6 7 8 7 10 11 13 13 13 12 12 13 13 13 12 13 11 11 12 12 12 12 12 12 12 12 11 12 11 10 11 10 11 10 10 10 11 10 10 10 10 10 10 9 8 9 10 9 9 8 8 8 8 8 6 7 7 6 12 13 13 12 8 6 4 4 3 4 7 9 9 6 4 6 1 5 12 13 12 7 6 7 7 9 10 11 12 13 13 13 13 13 13 13 12 13 12 11 13 12 12 12 11 11 12 13 12 12 9 9 10 10 11 9 9 10 10 10 11 10 10 10 10 9 9 10 11 10 9 8 9 8 7 8 7 8 7 6 11 12 13 12 8 6 5 4 3 4 7 9 9 7 3 5 3 1 5 9 8 5 5 6 8 10 11 12 13 13 14 13 13 13 14 14 13 13 12 10 10 12 12 12 10 11 12 12 11 12 10 10 10 10 10 10 10 10 9 9 10 10 9 9 9 9 8 9 9 9 8 8 8 8 8 7 7 8 7 6 12 13 13 13 11 7 5 4 4 4 7 8 9 9 5 3 5 3 0 4 5 4 6 8 8 10 12 12 13 14 14 13 13 14 14 14 13 12 13 11 10 11 11 12 12 11 12 11 10 11 11 11 10 10 10 10 10 10 10 9 10 10 9 9 9 8 9 9 9 8 8 8 7 8 8 7 8 8 7 5 12 12 13 13 14 10 7 5 4 4 7 8 9 9 6 2 3 4 1 0 3 5 7 9 10 11 12 12 13 13 13 13 13 13 13 14 13 12 13 13 13 11 11 12 11 12 11 11 10 11 11 10 10 10 10 10 11 10 10 10 10 10 9 9 9 9 9 9 9 8 7 8 8 6 6 8 7 7 7 6 12 12 13 12 13 13 10 5 4 5 6 7 10 10 8 5 2 3 4 1 1 5 8 10 11 12 13 13 14 14 13 13 13 13 14 13 12 13 12 13 14 12 12 11 11 12 11 11 11 11 10 11 10 10 10 9 10 11 10 10 9 9 10 10 8 9 8 8 8 8 6 8 8 6 6 7 7 6 6 5 11 12 12 11 11 13 12 9 5 4 5 7 10 10 9 7 4 3 4 4 2 4 8 10 11 12 12 13 13 14 14 12 13 14 14 13 13 12 12 13 13 11 12 11 10 11 11 11 10 10 10 11 10 9 9 9 10 10 10 10 9 9 10 9 9 9 9 8 8 8 7 7 7 7 6 7 7 6 5 4 9 11 12 11 12 13 13 11 7 5 5 6 10 10 10 9 6 3 3 4 4 5 8 10 11 12 12 13 12 13 13 13 14 14 14 13 14 13 12 12 12 10 12 12 11 11 10 9 10 10 11 10 10 8 8 9 10 9 10 9 9 8 9 10 10 9 9 8 8 8 7 7 7 5 6 7 6 6 6 5 10 10 12 12 13 13 14 12 7 5 5 6 10 10 10 9 9 7 5 5 5 6 8 9 12 12 12 12 12 12 13 14 15 14 13 13 12 11 11 11 10 10 11 11 11 11 10 9 10 10 9 9 10 9 9 10 9 9 9 10 9 8 8 9 8 9 8 8 8 8 7 8 7 6 6 6 6 5 6 7 10 10 11 12 11 13 14 14 9 6 4 5 9 10 10 9 9 8 7 6 7 6 8 9 11 12 12 12 12 11 13 14 14 14 13 13 11 11 12 11 10 11 11 11 11 11 10 10 10 10 9 10 10 9 9 10 9 9 9 9 9 9 9 9 8 9 9 8 8 8 8 7 7 6 7 6 6 6 6 7 10 9 11 11 11 12 12 13 12 6 4 6 8 10 9 9 8 9 9 8 8 8 8 9 11 12 12 12 12 13 14 14 13 14 13 13 12 11 11 9 10 10 10 10 10 9 10 9 9 10 9 10 10 10 11 10 10 10 10 9 9 9 9 9 9 8 8 8 7 6 7 7 6 5 6 5 5 5 6 6 9 9 11 10 10 12 12 12 12 10 6 7 8 8 8 9 9 9 9 9 9 9 9 10 10 11 12 12 13 13 14 14 13 13 13 13 13 12 11 9 10 10 9 10 9 10 10 10 9 10 8 9 9 9 10 10 10 10 9 9 8 9 10 8 8 9 8 8 8 6 6 6 5 6 6 5 5 6 6 6 7 8 11 10 10 11 10 11 11 12 9 7 8 8 9 9 10 10 10 10 10 10 10 10 10 11 12 13 13 13 14 14 15 15 13 12 12 11 11 10 11 9 9 10 9 10 11 9 8 10 8 9 9 9 10 9 10 10 9 9 8 9 9 8 8 8 8 8 8 7 7 8 6 6 6 7 7 6 7 6